<svg xmlns="http://www.w3.org/2000/svg" xmlns:xlink="http://www.w3.org/1999/xlink" width="144" height="128.771" viewBox="0 0 144 128.771"><defs><clipPath id="a"><rect width="144" height="128.771" fill="#fff"/></clipPath></defs><g clip-path="url(#a)"><path d="M82.871,210.485l.009-.007-.01.007h0" transform="translate(-38.126 -96.98)" fill="#fff" fill-rule="evenodd"/><path d="M81.447,208.969l-.005-.011c0-.011-.008-.022-.013-.032a.7.7,0,0,0-.049-.081.613.613,0,0,0-.068-.072l0,0a.307.307,0,0,0-.034-.021,1.178,1.178,0,0,0-.246-.1c-.04-.011-.082-.02-.123-.028l-.088-.013a3.449,3.449,0,0,0-.671.005,4.877,4.877,0,0,0-1.038.223q.283.625.529,1.266a1.468,1.468,0,0,1,.14-.06c.441-.149.9-.238,1.329-.412l.047-.048.044-.048c.012-.015.034-.039.043-.051.041-.055.082-.11.121-.166-.08.114.019-.039.036-.074.007-.015.027-.073.036-.095s.011-.067.012-.079a.707.707,0,0,0,0-.095c0-.005,0,0,0-.005" transform="translate(-36.395 -96.112)" fill="#fff" fill-rule="evenodd"/><path d="M118.089,232.2h0" transform="translate(-54.313 -106.991)" fill="#fff" fill-rule="evenodd"/><path d="M145.682,227.241l.012-.007c.032-.022.009-.011-.012.007" transform="translate(-67.024 -104.695)" fill="#fff" fill-rule="evenodd"/><path d="M119.915,228.475l-.38.3c.033,0,.064,0,.077.014a2.685,2.685,0,0,0,1.489.788,11.732,11.732,0,0,0-.476-1.689c-.237.2-.47.4-.711.587" transform="translate(-54.994 -105.002)" fill="#fff" fill-rule="evenodd"/><path d="M77.358,216.657c.026-.017.052-.033.069-.042l-.045.021-.024.022" transform="translate(-35.59 -99.808)" fill="#fff" fill-rule="evenodd"/><path d="M61.322,215.474l.048-.023a.2.2,0,0,0-.044.015c-.051.023-.1.051,0,.008" transform="translate(-28.187 -99.271)" fill="#fff" fill-rule="evenodd"/><path d="M61.476,215.439l-.014,0,0,0a.153.153,0,0,1,.019-.006" transform="translate(-28.274 -99.266)" fill="#fff" fill-rule="evenodd"/><path d="M69.993,215.762c-.038.226-.081.451-.122.677l.58-.246.153-.067c-.2-.15-.4-.31-.59-.476-.006.038-.015.074-.022.112" transform="translate(-32.145 -99.363)" fill="#fff" fill-rule="evenodd"/><path d="M82.763,210.518l0,0c-.083.034-.051.023,0,0" transform="translate(-38.054 -96.997)" fill="#fff" fill-rule="evenodd"/><path d="M148.623,233.52h0l-.034.024.035-.024" transform="translate(-68.36 -107.597)" fill="#fff" fill-rule="evenodd"/><path d="M146.341,226.978a2.5,2.5,0,0,0-.473.057c-.026.006-.114.03-.157.044l-.08.026-.015,0-.005,0-.073.032-.008,0-.009.011c-.032.039-.084.094-.1.118s-.018.015-.027.024a14.3,14.3,0,0,1,.521,1.846,3.084,3.084,0,0,1,.034,1.215,1.554,1.554,0,0,1-.134.369,3.932,3.932,0,0,0,1.035-.1,1.454,1.454,0,0,0,.17-.056l.043-.016.043-.024c.011-.005.035-.022.048-.031l0,0,.009-.007.034-.025c-.073.053.04-.035.047-.041l.072-.067.058-.057.037-.039c.047-.052.094-.105.139-.16a2.8,2.8,0,0,0,.2-.273,3.171,3.171,0,0,0,.38-.758,1.489,1.489,0,0,0-.2-1.473,2.073,2.073,0,0,0-1.6-.626" transform="translate(-66.89 -104.582)" fill="#fff" fill-rule="evenodd"/><path d="M211.609,220.544c-.137.209-.278.415-.419.622-.034.05-.064.1-.1.154a.817.817,0,0,1,.316-.08,4.137,4.137,0,0,1,1.826.534c.195.1.386.207.578.313,0-.1.141-.236.2-.286.116-.1.229-.2.355-.294-.017.012.085-.064.114-.084l.018-.015a21.7,21.7,0,0,1-2.554-1.034c-.111.059-.224.117-.338.171" transform="translate(-97.117 -101.539)" fill="#fff" fill-rule="evenodd"/><path d="M145.6,227.3l0,0,.03-.013h0l-.028.012" transform="translate(-66.983 -104.727)" fill="#fff" fill-rule="evenodd"/><path d="M145.651,227.289h0l.007,0-.006,0" transform="translate(-67.009 -104.725)" fill="#fff" fill-rule="evenodd"/><path d="M74.169,3.232c1,2.441,6.326,4.312,6.326,4.312a6.14,6.14,0,0,1,.64-5.5c2.923,2.236,1.76,6.987,1.76,6.987,4.065,7.574-1.873,11.059-1.873,11.059s2.42-2.922,1.346-5-2.124-4.631-5.893-.639c0,0-1.393-3.582,1.1-4.152,0,0-3.014-1.552-3.4-7.073" transform="translate(-34.122 -0.943)" fill="#fff" fill-rule="evenodd"/><path d="M63.153,38.125a2.532,2.532,0,0,1-.69,2.853c-.1-1.23-1.478-4.132-4.138-3.837a3.417,3.417,0,0,0-3,3.444c-.049.689.1,2.509.1,2.509a14.274,14.274,0,0,1-.591-6.3c.345-2.066,2.955-7.525,2.955-7.525,1.133-2.312.1-3.05-.788-4.625S56.5,22.63,56.5,22.63c2.019,0,2.414,1.082,2.414,1.082a6.074,6.074,0,0,1,.394-4.28,8.589,8.589,0,0,1,3.054,3.689,3.391,3.391,0,0,1,1.823-1.18c1.576,3.542-4.926,9.4-4.926,9.4,1.527-.345,5.911-3.689,8.669-5.8a7.323,7.323,0,0,0,3-4.624,4.6,4.6,0,0,1,2.119,3.343s.492,1.426-2.463,4.723a46.187,46.187,0,0,1-7.931,5.165s3.695-.246,5.222,1.771c0,0,.148.738-1.625,1.033,0,0,1.48,3.824,0,4.771,0,0-.352.078-2.617-2.455Z" transform="translate(-25.162 -8.954)" fill="#fff" fill-rule="evenodd"/><path d="M61.184,53.66a3.434,3.434,0,0,0-3.235-.045c-1.534.932-1.257,3.5-1.271,4.088a12.05,12.05,0,0,0,.048,1.767l.031.394c3.14,8.222,14.1,8.788,14.1,8.788-.419-1.812.418-5.644.418-5.644s-9.155.688-10.03-9.272Z" transform="translate(-26.07 -24.518)" fill="#fff" fill-rule="evenodd"/><path d="M91.421,48.031a2.348,2.348,0,0,1-1.8-.288,3.717,3.717,0,0,0-3.371-.709,2.685,2.685,0,0,0,.776-2.259A3.608,3.608,0,0,1,86.83,43a1.878,1.878,0,0,1-.954,1.085c-.843.51-2.018,1.572-1.907,2.392a1.673,1.673,0,0,0-1.11-1.069,3.077,3.077,0,0,0-2.008.139l-.251-.278s1.618-.836,1.952-1.671a3.751,3.751,0,0,0-.056-2.229,2.425,2.425,0,0,1,.056-1.393,2.622,2.622,0,0,1-.976,1.2c-.67.39-.725.64-.725.64a2.994,2.994,0,0,0-.279-1.643,2.826,2.826,0,0,1-.5-2.033c.167-.529-1.646,1.922-1.283,2.841s-.335-.39-1.255-.752a2.116,2.116,0,0,1-1.143-.808s-.056.752-.056,1.226a3.925,3.925,0,0,0,1.088,2.73l.033.025c.28.184.356.276,0,0a2.809,2.809,0,0,0-1.567-.554c-.948.112-1.367.362-1.562.223a9.094,9.094,0,0,0,1.534,1.671c.5.362.949.836,1.2.864s-.307.7-.251.891-.726-.223-1.283-.306a2.376,2.376,0,0,0-1.338.278c-.111.084.123.945.167,1.2A4.95,4.95,0,0,1,73.8,50.5c-.53.529-.666.443-1.057.221a7.384,7.384,0,0,1-1.956-1.943c-.115-.329-.474.808-.976,1.031s1.144-.279,1.98.946c0,0-.558.53-.586.892s.167.919.028,1.142.473-.307,1.059-.168,1.534-.083,1.729-.613-.307.473.586,1.476.892.919.892,1.225-.056-.334.669-1.03a1.927,1.927,0,0,0,.5-2.089c-.223-.362.893.7,1.06,1.644A9.016,9.016,0,0,1,77.76,56.1a20.071,20.071,0,0,0-.354,5.364s-.168.556.446.361a4.006,4.006,0,0,1,1.576-.011l.017-.32a54.559,54.559,0,0,1,.266-7.088,3.438,3.438,0,0,1,2.085-2.3,2.231,2.231,0,0,0,.244.532,3.263,3.263,0,0,0,1.929.841,2.1,2.1,0,0,0,1.819-2.258s2.417,1.639,4.258-.111a3.618,3.618,0,0,1-1-.62,2.725,2.725,0,0,0-.887-.686s2.484-.067,3.261-1.772m-13.387,3.7a5.793,5.793,0,0,0-1.561-1.2s.613-.891.53-1.393l-.084-.5-.251-.418s.753.362.921.223.53.14.53.14Zm4.128-1.281a2.4,2.4,0,0,0-.39.78l-.2-.055a2.51,2.51,0,0,0-2.147,1.03s-.084-4.512.111-3.538,2.287,1.477,2.287,1.477.558.083.335.306" transform="translate(-32.073 -17.54)" fill="#fff" fill-rule="evenodd"/><path d="M104.11,82.728c-3.9,3-6.134.654-6.134.654-2.808-2.587-.927-6.344-.927-6.344-1.526-4.6.49-5.935.49-5.935,1.009.736,1.091,3.675,1.091,3.675.627-1.715,3.271-2.178,4.525-2.369a3.892,3.892,0,0,0,1.936-.816,5.777,5.777,0,0,1-3.735,5.717s2.454.3,2.808,2.151c0,0-4.089-.952-5.152.327,0,0-2.617,3.376,3.216,3.021a11.37,11.37,0,0,0,2.235-.544c.6-.3-.354.462-.354.462" transform="translate(-44.366 -32.761)" fill="#fff" fill-rule="evenodd"/><path d="M99.536,61.7s-5.229,4.4-10.841,4.932c0,0-.089,5.895-.067,5.962a21.7,21.7,0,0,0,3.9-1.179S91.434,67.391,94,66.234c0,0,1.381.579,1.292,2.937a8.306,8.306,0,0,1,3.03-1.29c1.6-.267.524.108.769-.425s-1.666-.944-.451-2.921a15.461,15.461,0,0,0,1.078-1.987l.268-.4s-.379-.156-.445-.445" transform="translate(-40.773 -28.43)" fill="#fff" fill-rule="evenodd"/><path d="M81.476,125.163c1.434.5,2.163,2.822,2.163,2.822s0-9.477.035-11.148S83.9,102.3,83.9,102.3s-.97.087-1.074-.088-.752,16.119-.752,16.119-1.43-1.6-1.884-1.637-.767,1.811-.489,2.264a4.584,4.584,0,0,0,1.326,1.534c.733.523.663.7.628,1.359s-.174,3.309-.174,3.309" transform="translate(-36.618 -47.096)" fill="#fff" fill-rule="evenodd"/><path d="M82.443,177.891a2.919,2.919,0,0,0,2.13.023l-.165,8.667,1.556-.765a2.17,2.17,0,0,1,0,1.745c-.359,1.218-1.077,1.673-1.268,1.7s.287,2.151-.1,2.438-1.963.884-2.249.549-.168-1.1-.144-1.6.261-12.825.261-12.825" transform="translate(-37.799 -81.932)" fill="#fff" fill-rule="evenodd"/><path d="M87.341,186.923V181.88s.982.239,1.1,1c0,0-.407-.167-.574-.024s-.407.454-.215.6,1.818.669,1.627,1.912c0,0-.694-1.052-1.436-1.075,0,0-.287.909-.144,1.147s1.914.932,1.891,2.438a.3.3,0,0,1-.431.048,3.178,3.178,0,0,0-1.268-.86c-.574-.12-.551-.144-.551-.144" transform="translate(-40.183 -83.803)" fill="#fff" fill-rule="evenodd"/><path d="M62.4,170.425c-.488.905-1.883.766-2.86.313s-2.128-1.637-3.768-2.23-2.163-1.533-3.872-1.393c0,0,1.64-3.205,1.535-5.017a11.111,11.111,0,0,1-.035-2.961c.14-.313,0-1.219-1.779-2.055s-4.744-1.742-5.2-2.23l.026.085a2.493,2.493,0,0,0-.1,1.712c.338.649.182,1.5-.312,1.686s-2.286.986-2.13,1.894a4.317,4.317,0,0,1,.026,1.479c0,.1.068.575.068.575a6.5,6.5,0,0,0,1.553.964c1.221.523,2.163,1.6,1.953,2.578s-1.779,3.344-.558,5.226a6.449,6.449,0,0,1-.14,1.637,4.155,4.155,0,0,0,2.974,4.129c-.1-.073-.161-.125-.161-.125a4.271,4.271,0,0,1-.361-4.046c.145-.252.145.217,0,.578a3.492,3.492,0,0,0,.036,2.059,5.491,5.491,0,0,0,1.395,1.971,3.8,3.8,0,0,0,1.185.433c-.678-.449-.563-1.907-.736-2.457a3.554,3.554,0,0,1,0-1.445,15.168,15.168,0,0,1,.506,2.6,1.939,1.939,0,0,0,1.7,1.553s.34.039.508.079a3.542,3.542,0,0,0,1.313-.58,8.465,8.465,0,0,1-2.182-1.919,6.677,6.677,0,0,1-.434-1.95,4.466,4.466,0,0,0,1.266,2.347,7.052,7.052,0,0,0,4.345,1.917c.033-.008.062-.018.094-.027a2.085,2.085,0,0,1-1.424-.51,2.533,2.533,0,0,1-.941-2.348c0-.253.109.319.724,1.192a4.065,4.065,0,0,0,2.085,1.51,2.284,2.284,0,0,0,.772-.537,5.2,5.2,0,0,0,.619.108,3.11,3.11,0,0,1-1.5-.612,3.546,3.546,0,0,1-.8-2.131c.5,1.508,3.489,2.7,3.631,2.714a4.709,4.709,0,0,0,2.612-1.4V169a3.961,3.961,0,0,0-1.64,1.429m-14.626-7.836.036.108a4.934,4.934,0,0,1-.651-3.541,2.638,2.638,0,0,1,1.375-1.914s-1.664,1.733-.76,5.346m1.736,1.517a11.639,11.639,0,0,1-.759-3.684c-.13-2.16.978-2.536,1.3-2.8.074-.133.11-.176.079-.092a.25.25,0,0,1-.079.092,9.573,9.573,0,0,0-.826,2.183c-.326,1.372.615,4.767.289,4.3m1.3-4.227c-.47.939-.362,1.7-.181,3.431S50.6,165.3,50.6,165.3c.109-.795-.615-2.42-.615-3.937a3.225,3.225,0,0,1,1.266-2.42,4.519,4.519,0,0,1-.434.939" transform="translate(-20.196 -71.349)" fill="#fff" fill-rule="evenodd"/><path d="M49.926,124.6c-1.108-.989-2.3-2.057-2.375-3.2a22.273,22.273,0,0,0-.543-2.41,6.248,6.248,0,0,0-1.239-3.052,23.342,23.342,0,0,1-1.86-2.248c-.99-1.383-3.919-6.206-3.919-6.206a.464.464,0,0,1,.119-.633,4.722,4.722,0,0,0,.99-2.688l.025-.132c3.188-1.126,4.251-4.664,4.251-4.664l.419-9.328a6.956,6.956,0,0,0,1.546.321c2.158.032,1.546-2.734,1.546-2.734,3.446-1.126.869-3.8.708-3.924a1.054,1.054,0,0,1-.226-.514,3.574,3.574,0,0,0-.1-1.705,1.772,1.772,0,0,0-1.482-.676c-1.127-.064-2.255.643-2.834.45s-3.189,1.93-3.06,3.056.934,2.959.193,4.149-3.305,5.865-4.373,7a3.946,3.946,0,0,1,1.249,2.114c.031.715-.218.592-.218.592a3.164,3.164,0,0,0-.9-1.929c-.418-.573-1.093-1.4-.827-1.313-1.3-.955-4.262-2.807-7.389-2.543,0,0,2.514-1,1.291-4.407,0,0-2.737,4.5-7.472,1.93,0,0,.612-1.609,4.509-.676,0,0,.418-.322,0-1.48a11.9,11.9,0,0,1-.226-1.416,3.926,3.926,0,0,0-.407-1.015.813.813,0,0,1-.129.428A4.7,4.7,0,0,1,25.967,87c-.614.339-1.272.339-1.568-.339A4.4,4.4,0,0,1,24.547,84c.233-.318,1.335-1.439,1.907-.275.37.753.73.691.939.553a.292.292,0,0,1,.184-.173.762.762,0,0,1-.184.173.96.96,0,0,0-.07.483,3.35,3.35,0,0,1,.005.53.588.588,0,0,1,.049.055c.709.868,2.77,1.416,4.767.868A1.869,1.869,0,0,0,33.5,83.443c-.29-.547-.547.032-.547.032a3.923,3.923,0,0,1-.387,1.094c-.258.418-2.126,1.093-4.735-.321,0,0,1.836-1.77,1.127-2.735,0,0,.29-2.283-.58-2.637s-1.321.1-2.351.321a2.066,2.066,0,0,1-2.061-1c-.387-.483-1.933-.418-3.833.225s-5.379,1.9-6.506.386a3.424,3.424,0,0,0,2,4.085s-2.287.676-2.8,1.544-1.16.676-1.16.676a4.928,4.928,0,0,1,1.321,1.351,4.9,4.9,0,0,0,1.932,2.027,8.375,8.375,0,0,0,1.739,9.521s-.934-2.413,1.642-5.436c0,0-1.449,7.012,3.511,10.808,0,0,1.352.741.579,2.863S15.2,121.883,15.2,121.883s-3.412,7.559-7.406,7.109-5.186-3.217-4.541-4.568,4.638-2.831,4.928,1.351a2.843,2.843,0,0,0,1.1-.45c.468-.342,3.479-3.711-.3-5.644a8.112,8.112,0,0,0-2.083.339,4.592,4.592,0,0,1,1.951-.756c10.236-3.043,7.487-8.8,7.487-8.8a4.025,4.025,0,0,1-2.609,3.635c-2.77,1.351-4.187,1.191-5.056,1.769,0,0,5.475-4.953,6.377-7.172a5.09,5.09,0,0,0-1.772-6.208c-2.061-1.384-4.026-1.544-5.572-2.124s-5.087-1.576-4.347-5.307c0,0-.009-.127-.1-.063a.883.883,0,0,0-.159.159A4.946,4.946,0,0,0,1.742,98.4c.258,4.514,4.6,5.855,5.572,6.1a8.468,8.468,0,0,1,.458-1.184c.217-.4-.054.443-.266,1.229h0s-.812,3.137,1.77,4.5c0,0-.454-4.808,3.279-3.2,0,0,.383.975-.837,2.752a37.806,37.806,0,0,1-5.093,5.4S2.509,117.123.9,121.095s-.662,6.236-.279,7.351,4.569,6.132,9.907,2.265a1.65,1.65,0,0,1-.488,1.254s2.651-.279,4.779-4.355a22.434,22.434,0,0,1-.209,3.8c-.279,1.5-2.093,2.822-3.07,3.693-.89.794-2.7,2-2.2,4.948a.287.287,0,0,1,.224-.171c.579-.108,2.279-1.914,2.279-1.914s-.4.686-.94,1.625a3.807,3.807,0,0,1-1.355,1.362v0a7.622,7.622,0,0,0-.174,6.9l-.011-.249c0-.027-.012-.057-.016-.082a1.454,1.454,0,0,1,.253-1.3s1.193-1.192,1.483-1.552a2.824,2.824,0,0,0,.724-1.373,2.5,2.5,0,0,1-.181,1.517,4.891,4.891,0,0,0-1.266,2.854c0,1.089-.021,1.747.016,2.159.05.1.1.2.15.292a16.671,16.671,0,0,0,1.417,2.049,8.737,8.737,0,0,1,.7-3.525c.831-1.77.543-.83.543-.83s-1,3.51-.292,5.537l.148.183a7.583,7.583,0,0,0,3.16,2.953c-.1-.075-1.987-1.509-.966-5.375,1.049-3.973.362-.506.362-.506a6.986,6.986,0,0,0,2.264,6.154,5.267,5.267,0,0,0,1.774-.405.473.473,0,0,1,.663.172,6.144,6.144,0,0,1,.829,1.927,4.2,4.2,0,0,0,.289-3.891l.721-.5a2.934,2.934,0,0,1,1.533.954,3.806,3.806,0,0,1,.829,1.657,5.748,5.748,0,0,0-.162-3.08l-.5-1.243a19.462,19.462,0,0,1,2.2,1.153c.4.324-.778-2.954-3.138-4-1.587-.7-1.81-.576-1.984-.5-.307.126-1.8.912-1.8.912a18.771,18.771,0,0,1-1.884-8.814c0-4.111,1.989-5.4,3.454-7.212a9.147,9.147,0,0,0,1.814-3.589s1.117-1.15,1.4-1.358c.262-.2-.582-1.221-.6-2.354a2.653,2.653,0,0,0-.049-1.191c-.182-.545-.338-1.454.13-1.817s1.792-.96,2-1.375a3.006,3.006,0,0,0-.026-1.79,1.983,1.983,0,0,1,.806-1.973c.727-.622,4.988-2.881,5.43-5.294a1.817,1.817,0,0,1-.371-.788c-.125-.528-.5-.591-1.183-1.057s-.935-2.022-1.34-3.421a3.545,3.545,0,0,0-2.18-2.239c-.53-.187-.5-.715,1.059-.28a3.119,3.119,0,0,1,2.273,3.08c-.218.933.436,1.555,1.34,2.3s.4,2.406.4,2.406a7.794,7.794,0,0,0,1.916,2.486c1.227.989,2.177,2.847,3.325,3.676s5.107,3.519,5.225,4.35-.356,1.027-.673,1.423-.752,1.107-.593,1.62-1.03,1.542-2.217,1.068,2.415,2.807,4.948.83a2.6,2.6,0,0,1-2.494,1.423s3.088,1.9,4.83-.751a1.3,1.3,0,0,1-.555,1.74s2.732,0,3.365-2.412a7.935,7.935,0,0,0,.079,2.1,2.75,2.75,0,0,0,1.821-2.412c.238-1.976.475-2.688-.633-3.676M21.56,80.906c.233-.253.127-1.376,1.038-1.524s1.822.825,1.822.825c-.551.022-.826.677-1.441.8s-1.653.148-1.419-.106m.714,39.474a5.16,5.16,0,0,0-.4,3.254,2.088,2.088,0,0,1,.117.609s-.061-.238-.117-.609a3.079,3.079,0,0,0-2.05-1.894,1.817,1.817,0,0,1-1.176-.834c2.167,1.483,4.395-2.782,4.395-2.782a3.714,3.714,0,0,1-.774,2.257m.955-33.106a2.949,2.949,0,0,0-.18,2.041,2.168,2.168,0,0,1,.106.427s-.053-.17-.106-.427c-.047-.108-.107-.15-.175.043a13.049,13.049,0,0,0-.34,1.419c.4-4.73-4.233-7.464-4.233-7.464a3.788,3.788,0,0,0,4.04.073,3.1,3.1,0,0,0,.478-.372s.007-.01.01-.012c.1-.094.072-.063-.01.012a6.772,6.772,0,0,0-.774,2.574c.03.606,1.169-.414,1.169-.414a4.392,4.392,0,0,0-.888,1.434c-.252.768.326,1.774.326,1.448s1.154-1.671.577-.784m1.594,9.376c.4.994,2.288,2.984,4.491,4.7a5.382,5.382,0,0,0,4.471,1.079,3.193,3.193,0,0,1-2.14.4,8.724,8.724,0,0,1-5.212-3.386c-1.695-2.116-1.61-2.793-1.61-2.793m5.975,7.216a6.215,6.215,0,0,1-5.149-2.751,7.832,7.832,0,0,1-.954-4.443c.509,8.527,8.835,6.813,9.259,6.665a5.884,5.884,0,0,1-3.157.529m6.019,13.9a8.769,8.769,0,0,1,.4,1.275c-.28.342-.218.062-.529-.156s-.312-.684-.436-1.213a3,3,0,0,1,.5-1.928,9.782,9.782,0,0,0,.654-1.027c-.031.591-.249.716-.53,1.244a1.9,1.9,0,0,0-.063,1.8m2.99,2.986-.062.063-.187-.187a2.833,2.833,0,0,1-.468-1.057,2.423,2.423,0,0,1,.094-1.929,3.963,3.963,0,0,0,.436-1.213c.218.623,0,.684-.187,1.4s.031.9.312,1.866.062,1.057.062,1.057" transform="translate(0 -35.886)" fill="#fff" fill-rule="evenodd"/><path d="M185.492,168.887v6.793a4.707,4.707,0,0,0,2.612,1.4c.141-.014,3.127-1.206,3.631-2.713a3.549,3.549,0,0,1-.8,2.131,3.108,3.108,0,0,1-1.5.611,5.075,5.075,0,0,0,.619-.108,2.284,2.284,0,0,0,.772.537,4.062,4.062,0,0,0,2.085-1.509c.614-.874.723-1.445.723-1.192a2.533,2.533,0,0,1-.94,2.348,2.085,2.085,0,0,1-1.424.51c.032.009.06.019.094.027a7.053,7.053,0,0,0,4.346-1.916,4.466,4.466,0,0,0,1.266-2.348,6.652,6.652,0,0,1-.434,1.95,8.469,8.469,0,0,1-2.182,1.919,3.537,3.537,0,0,0,1.312.58c.169-.039.508-.079.508-.079a1.939,1.939,0,0,0,1.7-1.553,15.167,15.167,0,0,1,.507-2.6,3.544,3.544,0,0,1,0,1.445c-.173.551-.058,2.008-.735,2.457a3.8,3.8,0,0,0,1.184-.433,5.494,5.494,0,0,0,1.395-1.97,3.5,3.5,0,0,0,.036-2.059c-.145-.361-.145-.83,0-.578a4.273,4.273,0,0,1-.362,4.046s-.065.052-.161.125a4.155,4.155,0,0,0,2.974-4.129,6.451,6.451,0,0,1-.14-1.637c1.221-1.881-.349-4.251-.558-5.226s.732-2.056,1.953-2.579a6.5,6.5,0,0,0,1.553-.964s.068-.472.068-.575a4.306,4.306,0,0,1,.027-1.479c.155-.909-1.637-1.713-2.131-1.895s-.65-1.037-.312-1.686a2.493,2.493,0,0,0-.1-1.712l.027-.085c-.454.488-3.419,1.394-5.2,2.23s-1.919,1.742-1.779,2.055a11.109,11.109,0,0,1-.035,2.962c-.1,1.811,1.535,5.016,1.535,5.016-1.709-.14-2.233.8-3.872,1.393s-2.79,1.777-3.767,2.23-2.372.593-2.861-.313a3.957,3.957,0,0,0-1.639-1.428M201,157.135a2.635,2.635,0,0,1,1.375,1.913,4.935,4.935,0,0,1-.651,3.541l.036-.108c.9-3.613-.76-5.346-.76-5.346m-.686,2.564a9.6,9.6,0,0,0-.826-2.183.255.255,0,0,1-.079-.092c-.031-.084.005-.04.079.092.317.261,1.425.637,1.3,2.8a11.65,11.65,0,0,1-.76,3.684c-.326.469.615-2.926.29-4.3m-2.025-.867a3.225,3.225,0,0,1,1.265,2.42c0,1.517-.724,3.143-.615,3.938,0,0-.216-.253-.036-1.987s.289-2.492-.181-3.432a4.515,4.515,0,0,1-.433-.939" transform="translate(-85.339 -71.299)" fill="#fff" fill-rule="evenodd"/><path d="M172.89,128.169a2.749,2.749,0,0,0,1.821,2.411,7.953,7.953,0,0,0,.079-2.095c.633,2.411,3.365,2.411,3.365,2.411a1.3,1.3,0,0,1-.554-1.74c1.742,2.649,4.83.751,4.83.751a2.6,2.6,0,0,1-2.494-1.423c2.533,1.977,6.135-1.305,4.948-.83s-2.375-.554-2.217-1.068-.277-1.226-.594-1.621-.792-.593-.673-1.423,4.078-3.519,5.225-4.349,2.1-2.688,3.325-3.677a7.793,7.793,0,0,0,1.916-2.486s-.5-1.659.4-2.406,1.558-1.369,1.34-2.3a3.119,3.119,0,0,1,2.273-3.08c1.558-.435,1.589.093,1.059.28a3.545,3.545,0,0,0-2.18,2.239c-.4,1.4-.654,2.954-1.34,3.421s-1.058.529-1.183,1.057a1.816,1.816,0,0,1-.371.788c.442,2.413,4.7,4.671,5.43,5.294a1.983,1.983,0,0,1,.806,1.972,3,3,0,0,0-.026,1.79c.208.415,1.532,1.012,2,1.375s.312,1.272.13,1.816a2.654,2.654,0,0,0-.049,1.192c-.018,1.134-.863,2.158-.6,2.354.279.209,1.4,1.358,1.4,1.358a9.142,9.142,0,0,0,1.814,3.589c1.465,1.812,3.454,3.1,3.454,7.212a18.773,18.773,0,0,1-1.884,8.814s-1.493-.787-1.8-.912c-.174-.072-.4-.2-1.984.5-2.361,1.044-3.535,4.323-3.138,4a19.518,19.518,0,0,1,2.2-1.152l-.5,1.242a5.755,5.755,0,0,0-.163,3.08,3.815,3.815,0,0,1,.83-1.657,2.934,2.934,0,0,1,1.533-.954l.721.5a4.2,4.2,0,0,0,.289,3.891,6.144,6.144,0,0,1,.829-1.927.473.473,0,0,1,.663-.172,5.267,5.267,0,0,0,1.774.4,6.987,6.987,0,0,0,2.264-6.154s-.687-3.467.362.506c1.021,3.866-.864,5.3-.967,5.375a7.582,7.582,0,0,0,3.16-2.953l.147-.183c.711-2.028-.292-5.537-.292-5.537s-.289-.939.543.83a8.737,8.737,0,0,1,.7,3.524,16.67,16.67,0,0,0,1.417-2.049c.05-.092.1-.191.15-.292.036-.413.016-1.07.016-2.159a4.894,4.894,0,0,0-1.266-2.854,2.5,2.5,0,0,1-.181-1.517,2.822,2.822,0,0,0,.724,1.373c.289.361,1.483,1.553,1.483,1.553a1.453,1.453,0,0,1,.253,1.3c0,.026-.011.056-.017.082l-.011.249a7.621,7.621,0,0,0-.174-6.9v0a3.806,3.806,0,0,1-1.355-1.362c-.543-.939-.94-1.625-.94-1.625s1.7,1.806,2.279,1.914a.287.287,0,0,1,.223.171c.5-2.949-1.306-4.154-2.2-4.947-.977-.871-2.791-2.195-3.07-3.693a22.408,22.408,0,0,1-.209-3.8c2.128,4.076,4.779,4.355,4.779,4.355a1.649,1.649,0,0,1-.488-1.254c5.337,3.867,9.523-1.15,9.907-2.265s1.326-3.379-.279-7.351-5.722-7.107-5.722-7.107a37.8,37.8,0,0,1-5.093-5.4c-1.221-1.777-.837-2.752-.837-2.752,3.733-1.6,3.279,3.2,3.279,3.2,2.582-1.359,1.77-4.5,1.77-4.5h0c-.211-.786-.482-1.628-.265-1.229a8.468,8.468,0,0,1,.458,1.184c.97-.244,5.314-1.585,5.572-6.1a4.945,4.945,0,0,0-1.353-3.249.849.849,0,0,0-.159-.159c-.089-.065-.1.062-.1.062.741,3.732-2.8,4.729-4.346,5.308s-3.511.74-5.572,2.124a5.089,5.089,0,0,0-1.771,6.208c.9,2.22,6.377,7.173,6.377,7.173-.87-.578-2.287-.418-5.057-1.769a4.025,4.025,0,0,1-2.609-3.635s-2.75,5.757,7.486,8.8a4.593,4.593,0,0,1,1.951.755,8.119,8.119,0,0,0-2.082-.339c-3.781,1.934-.769,5.3-.3,5.644a2.853,2.853,0,0,0,1.1.45c.29-4.182,4.283-2.7,4.927-1.351s-.547,4.118-4.541,4.568-7.406-7.109-7.406-7.109-6.409-13.509-7.182-15.633.579-2.863.579-2.863c4.96-3.8,3.511-10.808,3.511-10.808,2.577,3.023,1.643,5.436,1.643,5.436a8.375,8.375,0,0,0,1.739-9.521,4.9,4.9,0,0,0,1.932-2.027,4.927,4.927,0,0,1,1.321-1.351s-.644.193-1.16-.676-2.8-1.544-2.8-1.544a3.424,3.424,0,0,0,2-4.085c-1.127,1.511-4.606.257-6.506-.386s-3.447-.708-3.833-.225a2.064,2.064,0,0,1-2.061,1c-1.031-.225-1.481-.676-2.351-.321s-.58,2.637-.58,2.637c-.708.965,1.128,2.735,1.128,2.735-2.609,1.414-4.477.74-4.735.321a3.926,3.926,0,0,1-.387-1.094s-.258-.579-.548-.032a1.87,1.87,0,0,0,1.353,2.766c2,.547,4.058,0,4.767-.868a.6.6,0,0,1,.049-.055,3.225,3.225,0,0,1,.005-.53.961.961,0,0,0-.071-.483.778.778,0,0,1-.184-.173.29.29,0,0,1,.184.173c.209.138.569.2.939-.553.572-1.164,1.674-.043,1.907.275a4.4,4.4,0,0,1,.148,2.666c-.3.677-.953.677-1.568.339a4.692,4.692,0,0,1-1.229-1.248.811.811,0,0,1-.129-.428,3.911,3.911,0,0,0-.407,1.015,11.923,11.923,0,0,1-.225,1.415c-.418,1.158,0,1.48,0,1.48,3.9-.933,4.509.675,4.509.675-4.735,2.573-7.472-1.93-7.472-1.93-1.223,3.41,1.291,4.407,1.291,4.407-3.127-.264-6.089,1.588-7.39,2.543.267-.092-.409.74-.827,1.313a3.163,3.163,0,0,0-.9,1.929s-.249.124-.218-.592a3.947,3.947,0,0,1,1.249-2.114c-1.067-1.138-3.634-5.816-4.373-7s.064-3.024.193-4.149-2.48-3.249-3.06-3.056-1.707-.514-2.834-.45a1.773,1.773,0,0,0-1.482.676,3.577,3.577,0,0,0-.1,1.705,1.053,1.053,0,0,1-.226.514c-.162.129-2.738,2.8.708,3.924,0,0-.612,2.766,1.546,2.734a6.956,6.956,0,0,0,1.546-.321l.419,9.328s1.062,3.538,4.251,4.664l.025.132a4.722,4.722,0,0,0,.99,2.688.463.463,0,0,1,.118.633s-2.929,4.824-3.918,6.207a23.349,23.349,0,0,1-1.86,2.248,6.248,6.248,0,0,0-1.239,3.052,22.385,22.385,0,0,0-.544,2.41c-.079,1.146-1.266,2.214-2.375,3.2s-.871,1.7-.633,3.677M200.47,80.9c-.614-.127-.89-.783-1.441-.8,0,0,.911-.973,1.822-.825s.805,1.27,1.038,1.524-.8.233-1.42.106m-.068,37.111s2.228,4.265,4.395,2.782a1.819,1.819,0,0,1-1.176.834,3.077,3.077,0,0,0-2.05,1.894c-.056.371-.117.609-.117.609a2.1,2.1,0,0,1,.117-.609,5.159,5.159,0,0,0-.4-3.254,3.709,3.709,0,0,1-.773-2.256m.4-30.065c0,.325.577-.68.326-1.449a4.4,4.4,0,0,0-.888-1.433s1.14,1.02,1.17.414a6.767,6.767,0,0,0-.774-2.574c-.082-.076-.111-.107-.01-.012a.122.122,0,0,1,.01.012,3.132,3.132,0,0,0,.478.372,3.789,3.789,0,0,0,4.04-.073s-4.632,2.733-4.233,7.464a13.046,13.046,0,0,0-.34-1.419c-.069-.193-.128-.151-.175-.043-.052.257-.106.427-.106.427a2.165,2.165,0,0,1,.106-.427,2.948,2.948,0,0,0-.18-2.041c-.577-.887.577.458.577.783m-3.781,11.386a8.724,8.724,0,0,1-5.212,3.386,3.191,3.191,0,0,1-2.14-.4,5.379,5.379,0,0,0,4.471-1.079c2.2-1.714,4.09-3.7,4.492-4.7,0,0,.085.677-1.61,2.793m-7.522,3.894c.424.148,8.751,1.862,9.259-6.665a7.837,7.837,0,0,1-.953,4.443,6.215,6.215,0,0,1-5.149,2.751,5.884,5.884,0,0,1-3.157-.529m-2.925,12.623c-.28-.528-.5-.653-.53-1.244a9.787,9.787,0,0,0,.654,1.027,3,3,0,0,1,.5,1.928c-.125.528-.125,1-.436,1.213s-.249.5-.53.156a8.863,8.863,0,0,1,.4-1.275,1.9,1.9,0,0,0-.062-1.8m-2.865,3.733c.28-.964.5-1.151.311-1.866s-.4-.777-.187-1.4a3.962,3.962,0,0,0,.436,1.213,2.419,2.419,0,0,1,.093,1.928,2.827,2.827,0,0,1-.467,1.057l-.187.187-.062-.063s-.219-.093.062-1.057" transform="translate(-79.449 -35.836)" fill="#fff" fill-rule="evenodd"/><path d="M75.468,220.44s1.37-1.97.493-3.284-1.26-1.313-1.26-1.313-1.818.363-4.713,3.447c-1.644,1.751-1.315,2.19-1.315,2.19s3.069.766,3.452,2.079-.274,3.612-3.4,3.338A66.882,66.882,0,0,1,58.1,224.325c-.438-.219-1.206.492-1.206.492s10.464,3.324,12.713,3.065a4.156,4.156,0,0,0,3.561-2.737c1.038-2.518,1.1-3.174,2.3-4.706" transform="translate(-26.174 -99.452)" fill="#fff" fill-rule="evenodd"/><path d="M50.029,211.607a28.792,28.792,0,0,0-4.257-1.359,14.912,14.912,0,0,0-1.909-.241,3.089,3.089,0,0,1,1.58,1.03,12.891,12.891,0,0,1,1.6,2.257c.088.2,2.107-1.359,2.985-1.687" transform="translate(-20.179 -96.763)" fill="#fff" fill-rule="evenodd"/><path d="M69.923,222.383s-3.172,1.215-4.666,2.029-4.786,2.133-5.159,2.3,2.51.846,3.732,1.151a52.547,52.547,0,0,0,6.676,1.5c1.222,0,2.6-.93,2.6-1.879s-.286-1.3-1.372-1.809-1.476-.59-2.041-.855c-.867-.406.534-2.08.67-2.215s-.439-.219-.439-.219" transform="translate(-27.634 -102.465)" fill="#fff" fill-rule="evenodd"/><path d="M183.883,3.123c-1.005,2.441-6.327,4.312-6.327,4.312a6.14,6.14,0,0,0-.639-5.5c-2.924,2.236-1.76,6.987-1.76,6.987-4.066,7.574,1.873,11.059,1.873,11.059s-2.42-2.922-1.347-5,2.125-4.631,5.893-.639c0,0,1.394-3.582-1.1-4.152,0,0,3.015-1.552,3.4-7.073" transform="translate(-79.929 -0.892)" fill="#fff" fill-rule="evenodd"/><path d="M187.874,38.015a2.531,2.531,0,0,0,.689,2.853c.1-1.229,1.479-4.132,4.137-3.837a3.417,3.417,0,0,1,3,3.443c.049.689-.1,2.509-.1,2.509a14.264,14.264,0,0,0,.591-6.3c-.344-2.066-2.954-7.526-2.954-7.526-1.132-2.312-.1-3.05.788-4.624s.492-2.017.492-2.017c-2.019,0-2.412,1.082-2.412,1.082a6.076,6.076,0,0,0-.395-4.28,8.586,8.586,0,0,0-3.053,3.689,3.4,3.4,0,0,0-1.823-1.181c-1.576,3.542,4.926,9.4,4.926,9.4-1.526-.345-5.911-3.689-8.669-5.8a7.322,7.322,0,0,1-3-4.624,4.6,4.6,0,0,0-2.119,3.343s-.492,1.427,2.463,4.723a46.205,46.205,0,0,0,7.929,5.165s-3.694-.246-5.221,1.771c0,0-.148.738,1.626,1.033,0,0-1.481,3.824,0,4.772,0,0,.35.078,2.616-2.456Z" transform="translate(-81.865 -8.903)" fill="#fff" fill-rule="evenodd"/><path d="M193.066,53.552a3.432,3.432,0,0,1,3.235-.045c1.535.932,1.257,3.5,1.271,4.088a11.88,11.88,0,0,1-.047,1.765l-.031.395c-3.14,8.222-14.1,8.788-14.1,8.788.419-1.812-.418-5.644-.418-5.644s9.154.687,10.029-9.272Z" transform="translate(-84.18 -24.468)" fill="#fff" fill-rule="evenodd"/><path d="M177,51.543c-.028-.362-.586-.891-.586-.891.837-1.225,2.482-.724,1.98-.947s-.861-1.361-.976-1.031a7.394,7.394,0,0,1-1.956,1.944c-.391.223-.528.308-1.058-.221a4.957,4.957,0,0,1-.557-2.836c.045-.253.279-1.114.168-1.2a2.387,2.387,0,0,0-1.339-.278c-.558.084-1.338.5-1.282.306s-.5-.863-.252-.891.7-.5,1.2-.864a9.1,9.1,0,0,0,1.534-1.671c-.195.139-.613-.111-1.562-.223a2.807,2.807,0,0,0-1.565.553c-.36.279-.283.186,0,0l.031-.023a3.927,3.927,0,0,0,1.087-2.73c0-.473-.056-1.226-.056-1.226a2.117,2.117,0,0,1-1.143.808c-.921.362-1.618,1.672-1.256.752s-1.45-3.37-1.282-2.841a2.827,2.827,0,0,1-.5,2.033,2.991,2.991,0,0,0-.279,1.643s-.056-.25-.724-.64a2.621,2.621,0,0,1-.976-1.2,2.426,2.426,0,0,1,.055,1.393,3.751,3.751,0,0,0-.055,2.228c.335.836,1.952,1.672,1.952,1.672l-.251.278a3.076,3.076,0,0,0-2.008-.14,1.673,1.673,0,0,0-1.11,1.069c.111-.82-1.065-1.882-1.907-2.392a1.876,1.876,0,0,1-.954-1.085,3.62,3.62,0,0,1-.2,1.772,2.685,2.685,0,0,0,.776,2.259,3.714,3.714,0,0,0-3.371.709,2.351,2.351,0,0,1-1.8.288c.776,1.705,3.26,1.771,3.26,1.771a2.745,2.745,0,0,0-.887.686,3.6,3.6,0,0,1-1,.621c1.841,1.75,4.258.111,4.258.111a2.1,2.1,0,0,0,1.818,2.259,3.268,3.268,0,0,0,1.929-.841,2.251,2.251,0,0,0,.243-.532,3.437,3.437,0,0,1,2.085,2.3,54.538,54.538,0,0,1,.266,7.087l.016.32a4.013,4.013,0,0,1,1.577.011c.613.195.445-.362.445-.362A20.043,20.043,0,0,0,170.445,56a9.02,9.02,0,0,1,.032-2.865c.167-.947,1.283-2.005,1.06-1.643a1.926,1.926,0,0,0,.5,2.089c.726.7.669,1.337.669,1.03s0-.223.892-1.226.391-2.005.586-1.476,1.144.752,1.73.613,1.2.39,1.059.167.056-.78.029-1.142m-8.227.557a2.51,2.51,0,0,0-2.147-1.03l-.2.056a2.39,2.39,0,0,0-.391-.78c-.223-.223.335-.306.335-.306s2.092-.5,2.287-1.476.112,3.537.112,3.537m1.395-.473-.084-3.148s.362-.278.53-.139.92-.223.92-.223l-.251.418-.084.5c-.083.5.53,1.393.53,1.393a5.792,5.792,0,0,0-1.561,1.2" transform="translate(-72.131 -17.49)" fill="#fff" fill-rule="evenodd"/><path d="M155.1,83.055c3.9,2.995,6.133.654,6.133.654,2.809-2.587.927-6.344.927-6.344,1.526-4.6-.491-5.935-.491-5.935-1.009.736-1.091,3.675-1.091,3.675-.627-1.715-3.271-2.178-4.525-2.368a3.888,3.888,0,0,1-1.935-.816,5.776,5.776,0,0,0,3.735,5.717s-2.454.3-2.809,2.151c0,0,4.09-.952,5.153.327,0,0,2.617,3.376-3.217,3.022a11.341,11.341,0,0,1-2.235-.545c-.6-.3.354.463.354.463" transform="translate(-70.901 -32.912)" fill="#fff" fill-rule="evenodd"/><path d="M153.846,60.812s7.193,4.82,12.807,5.354c0,0,.089,5.894.067,5.961a21.63,21.63,0,0,1-3.9-1.179s1.091-4.026-1.47-5.183c0,0-1.381.578-1.291,2.936a8.312,8.312,0,0,0-3.03-1.29c-1.6-.267-2.784-.645-3.029-1.179s1.148-1.312.582-2.985c-.49-1.446-.915-1.591-.915-1.591l-.268-.4s.379-.156.446-.445" transform="translate(-70.574 -28.02)" fill="#fff" fill-rule="evenodd"/><path d="M181.556,125.055c-1.433.5-2.163,2.821-2.163,2.821s0-9.476-.035-11.148-.222-14.534-.222-14.534.969.087,1.075-.087.752,16.119.752,16.119,1.43-1.6,1.884-1.637.768,1.811.488,2.264a4.581,4.581,0,0,1-1.326,1.533c-.733.523-.663.7-.628,1.358s.174,3.31.174,3.31" transform="translate(-82.415 -47.046)" fill="#fff" fill-rule="evenodd"/><path d="M180.881,177.782a2.922,2.922,0,0,1-2.13.024l.166,8.666-1.556-.764a2.167,2.167,0,0,0,0,1.745c.359,1.218,1.077,1.672,1.268,1.7s-.287,2.151.1,2.438,1.963.884,2.249.549.167-1.1.143-1.6-.261-12.825-.261-12.825" transform="translate(-81.525 -81.882)" fill="#fff" fill-rule="evenodd"/><path d="M177.442,186.814v-5.043s-.981.239-1.1,1c0,0,.407-.168.574-.024s.407.455.216.6-1.819.669-1.628,1.912c0,0,.694-1.052,1.436-1.075,0,0,.287.909.144,1.147s-1.914.932-1.89,2.437a.3.3,0,0,0,.43.048,3.169,3.169,0,0,1,1.268-.86c.575-.12.551-.144.551-.144" transform="translate(-80.6 -83.753)" fill="#fff" fill-rule="evenodd"/><path d="M174.733,220.331s-1.37-1.97-.493-3.284,1.26-1.314,1.26-1.314,1.818.363,4.712,3.447c1.644,1.751,1.315,2.189,1.315,2.189s-3.069.766-3.452,2.079.274,3.612,3.4,3.339a66.843,66.843,0,0,0,10.631-2.573c.438-.218,1.206.493,1.206.493s-10.465,3.323-12.713,3.064a4.153,4.153,0,0,1-3.561-2.736c-1.039-2.518-1.1-3.174-2.3-4.706" transform="translate(-80.027 -99.402)" fill="#fff" fill-rule="evenodd"/><path d="M211.417,211.5a28.767,28.767,0,0,1,4.257-1.359,14.9,14.9,0,0,1,1.91-.241A3.09,3.09,0,0,0,216,210.927a12.893,12.893,0,0,0-1.6,2.258c-.088.2-2.107-1.359-2.985-1.687" transform="translate(-97.266 -96.713)" fill="#fff" fill-rule="evenodd"/><path d="M185.663,222.275s3.172,1.215,4.666,2.029,4.785,2.133,5.159,2.3-2.51.846-3.732,1.151a52.461,52.461,0,0,1-6.676,1.5c-1.222,0-2.6-.93-2.6-1.879s.287-1.3,1.373-1.809,1.477-.591,2.042-.855c.867-.406-.535-2.08-.67-2.215s.438-.219.438-.219" transform="translate(-83.953 -102.416)" fill="#fff" fill-rule="evenodd"/><path d="M153.334,12.488c-.071-.077-.125-.138-.158-.18a5.924,5.924,0,0,1-.406-.6c-.44,1.476-1.024,4.565,1.189,6.006,1.942-2.41.011-4.531-.625-5.228" transform="translate(-70.094 -5.396)" fill="#fff" fill-rule="evenodd"/><path d="M152.746,28.639a3.977,3.977,0,0,1,.882-.441l.418-.123.022.1c1.5-2.265.827-3.895.51-4.3a1.925,1.925,0,0,0-.7.245c-.322.431-2.169,3.042-1.136,4.516" transform="translate(-70.131 -11.003)" fill="#fff" fill-rule="evenodd"/><path d="M143.208,40.941A8.055,8.055,0,0,1,145.4,38.19a7.446,7.446,0,0,1,.557-2.861,2.957,2.957,0,0,0-.54-2.154c-.256-.384-.1.709-.256,1.878a8.917,8.917,0,0,1-2.991,5.206l-.128.816a7.412,7.412,0,0,1,1.157.171.4.4,0,0,1,.015-.306" transform="translate(-65.346 -15.25)" fill="#fff" fill-rule="evenodd"/><path d="M149.779,37.992a3.065,3.065,0,0,1,.379-.122l.275-.068.159.235a2.54,2.54,0,0,1,.258.547c.64-.505,1.8-1.851,1.4-4.706a.4.4,0,0,1-.036-.205,4.9,4.9,0,0,0-2.429,4.321" transform="translate(-68.908 -15.514)" fill="#fff" fill-rule="evenodd"/><path d="M151.669,20.132a5.673,5.673,0,0,1-.554.459c.191-.174.376-.326.554-.459a8.689,8.689,0,0,0,2.755-7.185,1.041,1.041,0,0,0-1.172.344,7.159,7.159,0,0,0-.207-7.231,7.942,7.942,0,0,0-1.112,1.64c-.036.1-.06.15-.06.15.014-.047.039-.1.06-.15A6.85,6.85,0,0,0,150.494.758a11.766,11.766,0,0,0-1.242,2.273S148.77.826,145.391,0c0,0,.551.964.414,1.446a4.216,4.216,0,0,0,.275,1.928,2.535,2.535,0,0,0-1.379-.069A4.238,4.238,0,0,0,146.563,7.3s-.386,3.707,1.476,5.292c0,0-2.1,4.832-.234,6.347,0,0-.082.114-.188.285a5.3,5.3,0,0,1,.921-1.1c-1.348-1.858.554-4.708,1.07-5.411-2.973-2.41-.923-7.321-.829-7.539l.335-.784.4.754a10.775,10.775,0,0,0,.769,1.258c.026.032.07.079.125.14,1.8,1.98,2.166,3.881,1.088,5.663a2.6,2.6,0,0,1,.607,1.124c.253.887.394,2.692-1.392,4.935.531,3.739-1.384,5.266-2.033,5.666a3.886,3.886,0,0,1-.874,2.59,8.141,8.141,0,0,1,1.109.332,4.587,4.587,0,0,1,1.309,1.179A5.58,5.58,0,0,0,151.39,25a7.2,7.2,0,0,0-2.018.194c.439-.111,3.729-1.1,4.5-5.979a3.743,3.743,0,0,0-2.2.918" transform="translate(-66.563)" fill="#fff" fill-rule="evenodd"/><path d="M147.458,45.944a2.837,2.837,0,0,0,.586-2.847,2.718,2.718,0,0,0-.288.139.4.4,0,0,1-.39.413.4.4,0,0,1-.161-.029,7.721,7.721,0,0,0-1.708,2.272.4.4,0,0,1-.078.106,5.822,5.822,0,0,0,1.934.319c.015,0,.034,0,.05,0a.4.4,0,0,1,.056-.37" transform="translate(-66.903 -19.857)" fill="#fff" fill-rule="evenodd"/><path d="M109.7,12.429a6.054,6.054,0,0,1-.407.6c-.033.042-.089.1-.159.18-.636.7-2.567,2.819-.625,5.228,2.22-1.444,1.632-4.532,1.191-6.007" transform="translate(-49.535 -5.727)" fill="#fff" fill-rule="evenodd"/><path d="M115.782,33.9a2.959,2.959,0,0,0-.54,2.154,7.445,7.445,0,0,1,.557,2.861,8.044,8.044,0,0,1,2.188,2.751.4.4,0,0,1,.015.306,7.348,7.348,0,0,1,1.158-.171l-.129-.817a8.914,8.914,0,0,1-2.991-5.205c-.158-1.169,0-2.262-.256-1.878" transform="translate(-53.003 -15.582)" fill="#fff" fill-rule="evenodd"/><path d="M108.3,28.9l.022-.1.418.123a4.008,4.008,0,0,1,.882.441c1.033-1.474-.814-4.084-1.136-4.516a1.936,1.936,0,0,0-.7-.245c-.316.4-.986,2.032.511,4.3" transform="translate(-49.395 -11.335)" fill="#fff" fill-rule="evenodd"/><path d="M111.537,39.3a2.512,2.512,0,0,1,.258-.547l.159-.235.275.068a3.059,3.059,0,0,1,.378.122,4.893,4.893,0,0,0-2.43-4.32.4.4,0,0,1-.035.2c-.41,2.856.755,4.2,1.4,4.707" transform="translate(-50.634 -15.847)" fill="#fff" fill-rule="evenodd"/><path d="M107.558,24.657c-.648-.4-2.564-1.928-2.033-5.666-1.786-2.243-1.645-4.049-1.392-4.936a2.6,2.6,0,0,1,.607-1.123c-1.078-1.781-.716-3.682,1.087-5.663.056-.06.1-.107.126-.141a10.27,10.27,0,0,0,.769-1.258.4.4,0,0,1,.375-.217.406.406,0,0,1,.356.245c.093.218,2.144,5.129-.829,7.539.515.7,2.418,3.554,1.07,5.411a5.284,5.284,0,0,1,.922,1.1c-.107-.173-.189-.286-.189-.286,1.862-1.515-.234-6.347-.234-6.347,1.862-1.584,1.476-5.292,1.476-5.292a4.237,4.237,0,0,0,1.862-3.994,2.536,2.536,0,0,0-1.379.069,4.231,4.231,0,0,0,.276-1.928c-.138-.482.414-1.446.414-1.446-3.379.826-3.862,3.03-3.862,3.03a11.734,11.734,0,0,0-1.241-2.272A6.849,6.849,0,0,0,104.3,8.423c.021.05.045.1.059.149,0,0-.024-.054-.059-.149a7.956,7.956,0,0,0-1.113-1.641,7.158,7.158,0,0,0-.207,7.231,1.041,1.041,0,0,0-1.173-.344,8.694,8.694,0,0,0,2.755,7.184c.178.133.364.285.556.46a5.652,5.652,0,0,1-.556-.46,3.741,3.741,0,0,0-2.2-.917c.772,4.882,4.061,5.869,4.5,5.979a7.216,7.216,0,0,0-2.018-.195,5.58,5.58,0,0,0,1.172,3.04,4.588,4.588,0,0,1,1.31-1.18,8.181,8.181,0,0,1,1.11-.332,3.88,3.88,0,0,1-.875-2.59" transform="translate(-46.823 -0.332)" fill="#fff" fill-rule="evenodd"/><path d="M116.686,46.612a7.709,7.709,0,0,0-1.707-2.271.365.365,0,0,1-.161.028.4.4,0,0,1-.39-.413,2.678,2.678,0,0,0-.289-.139,2.837,2.837,0,0,0,.586,2.847.4.4,0,0,1,.056.37c.016,0,.035,0,.05,0a5.81,5.81,0,0,0,1.934-.319.4.4,0,0,1-.079-.106" transform="translate(-52.437 -20.189)" fill="#fff" fill-rule="evenodd"/><path d="M118.085,16.515v9.971a7.606,7.606,0,0,0,15.213,0V16.515Zm3.751,6.857a2.954,2.954,0,1,1,2.958-2.953,2.955,2.955,0,0,1-2.958,2.953" transform="translate(-54.327 -7.609)" fill="#fff" fill-rule="evenodd"/><path d="M131.234,153.194c1.728-1.833,2.537-1.618,4.427-2.21s1.458-3.667,1.458-3.667a1.648,1.648,0,0,1-.756,1.294c-.81.648-1.836.485-3.78.378s-2.429,1.294-3.672,2.049-1.673.216-1.673.216l-.107-.917-.918-.108,7.828-9.813-12.687,9.113s-.649.053-.756-.216,0-1.024,1.134-2.588.7-2.157.7-3.72a3.714,3.714,0,0,1,1.512-2.642A14.822,14.822,0,0,0,122,140.9c-.864.324-1.242,1.186-1.566,2.21s-.756,1.348-2.214,2.265-1.134,3.127-1.134,3.127l-2.538-8.2-2.537,8.2s.323-2.21-1.134-3.127-1.89-1.24-2.214-2.265-.7-1.887-1.566-2.21a14.822,14.822,0,0,0-1.943-.539A3.714,3.714,0,0,1,106.668,143c0,1.563-.432,2.156.7,3.72s1.241,2.319,1.134,2.588-.756.216-.756.216L95.06,140.415l7.829,9.813-.918.108-.108.917s-.432.539-1.673-.216-1.728-2.157-3.672-2.049-2.969.27-3.78-.378a1.648,1.648,0,0,1-.756-1.294s-.432,3.073,1.458,3.667,2.7.377,4.427,2.21,2.484,2.265,3.888,2.373l-8.368,1.779,8.638,3.073s.216.863-1.566,1.672-1.89-.108-2.592,1.186-.809,1.294-1.349,1.294a2.35,2.35,0,0,1-1.134-.431s.593,1.833,1.89,1.887a4.983,4.983,0,0,0,2.7-.862,2.937,2.937,0,0,1,2.052-.054,15.066,15.066,0,0,1,0,2.211l-2.537,4.691,7.451-4.421,1.4.108s-1.08,1.078-1.08,1.618.647,2.8.485,3.289-1.133,2.157-1.781,2.372.756.324,2-.162a2.571,2.571,0,0,0,1.673-2.75,2.625,2.625,0,0,1,1.242-2.265,3.429,3.429,0,0,0,.7-2.264c-.108-.27.54.593.7.647s2.361,14.991,2.361,14.991v-.059c.008-.062,2.012-14.878,2.174-14.932s.81-.916.7-.647a3.429,3.429,0,0,0,.7,2.264,2.626,2.626,0,0,1,1.242,2.265,2.57,2.57,0,0,0,1.674,2.75c1.242.485,2.645.378,2,.162s-1.619-1.887-1.781-2.372.486-2.75.486-3.289-1.08-1.618-1.08-1.618l1.4-.108,7.451,4.421-2.537-4.691a15.066,15.066,0,0,1,0-2.211,2.937,2.937,0,0,1,2.052.054,4.985,4.985,0,0,0,2.7.862c1.3-.053,1.889-1.887,1.889-1.887a2.351,2.351,0,0,1-1.134.431c-.54,0-.647,0-1.349-1.294s-.81-.377-2.592-1.186-1.566-1.672-1.566-1.672l8.638-3.073-8.368-1.779c1.4-.108,2.16-.539,3.888-2.373m-4.45,14.366s-5.831-.215-7.4-.215a9.494,9.494,0,0,1-2.16-.162,7.273,7.273,0,0,1-1.458,1.4,2.859,2.859,0,0,1-1.134.27c-2.267-.161-2.861-1.509-2.861-1.509l-9.448-.431-.27-16.338,1.781-.054,1.3-.7a3.943,3.943,0,0,0,2.43.108c1.3-.377,2.592-1.295,4.373-.863a4.948,4.948,0,0,1,2.646,1.564s1.62-2.049,3.726-1.564,3.509,1.078,4.373.971a3.579,3.579,0,0,1,2.052.377,8.615,8.615,0,0,0,2.214.162Z" transform="translate(-42.299 -64.648)" fill="#fff" fill-rule="evenodd"/><path d="M123.023,176.282H123A3.627,3.627,0,0,1,120,174.765l-9.551-.436-.279-16.858,1.984-.06,1.354-.732.12.051a3.71,3.71,0,0,0,2.248.1c.323-.094.648-.224.991-.361a5.128,5.128,0,0,1,6.1.915,4.162,4.162,0,0,1,3.788-1.421c.76.175,1.425.363,2.012.529a7.181,7.181,0,0,0,2.267.437,3.867,3.867,0,0,1,2.219.411,7.853,7.853,0,0,0,2.072.126l.281-.008L135.438,175l-.277-.01c-.058,0-5.844-.215-7.387-.215a12.157,12.157,0,0,1-2.056-.134,6.416,6.416,0,0,1-1.441,1.346,3.131,3.131,0,0,1-1.254.3m-12.044-2.469,9.362.427.067.154c.022.047.572,1.2,2.622,1.348a2.6,2.6,0,0,0,1.005-.241,6.722,6.722,0,0,0,1.368-1.33l.11-.136.171.045a9.578,9.578,0,0,0,2.09.153c1.356,0,5.95.163,7.129.205l.157-16.43a6.243,6.243,0,0,1-2.075-.2,3.284,3.284,0,0,0-1.884-.344,7.128,7.128,0,0,1-2.482-.453c-.58-.164-1.239-.35-1.985-.522-1.916-.441-3.438,1.449-3.453,1.468l-.214.27-.212-.273a4.738,4.738,0,0,0-2.494-1.466,4.988,4.988,0,0,0-3.194.482c-.355.142-.692.277-1.04.378a4.215,4.215,0,0,1-2.485-.071l-1.244.673-1.579.047Z" transform="translate(-50.685 -71.805)" fill="#fff"/><path d="M123.887,175.444a3.432,3.432,0,0,1-2.534-1.1c-1.482-.112-8.466-.63-8.466-.63a.54.54,0,0,1-.475-.377c-.274-.874-.253-10.952-.241-14.02a.539.539,0,0,1,.147-.368l1.728-1.833a.54.54,0,1,1,.786.739l-1.581,1.678c-.017,4.5.011,11.41.15,13.137,1.674.125,7.658.569,8.261.615a.54.54,0,0,1,.4.229,2.319,2.319,0,0,0,1.825.848.539.539,0,1,1,0,1.079" transform="translate(-51.603 -72.316)" fill="#fff"/><path d="M133.383,175.444a.539.539,0,1,1,0-1.079,2.316,2.316,0,0,0,1.827-.852.551.551,0,0,1,.4-.225c.6-.046,6.59-.491,8.263-.615.138-1.713.166-8.636.149-13.137l-1.582-1.678a.54.54,0,1,1,.787-.739l1.728,1.833a.541.541,0,0,1,.146.368c.013,3.068.033,13.146-.241,14.02a.539.539,0,0,1-.475.377s-6.984.518-8.466.63a3.43,3.43,0,0,1-2.534,1.1" transform="translate(-61.117 -72.316)" fill="#fff"/><path d="M117.026,172.774a1.363,1.363,0,0,1-1.412-.806c-.337-.842-.28-10.688-.254-13.685a.539.539,0,0,1,.54-.534h0a.54.54,0,0,1,.536.544c-.041,4.751-.027,12.561.183,13.293.118.291,1.3-.012,1.748-.126l.205-.052a4.162,4.162,0,0,0,.567-.255c1.165-.579,3.588-1.784,6.167.305a.54.54,0,1,1-.68.838c-2.039-1.652-3.824-.765-5.005-.177a4.279,4.279,0,0,1-.787.336l-.2.051a6.822,6.822,0,0,1-1.613.27" transform="translate(-53.064 -72.685)" fill="#fff"/><path d="M113.317,185.336a.539.539,0,0,1-.368-.933l1.619-1.51a.54.54,0,0,1,.737.788l-1.62,1.51a.537.537,0,0,1-.368.145" transform="translate(-51.885 -84.203)" fill="#fff"/><path d="M144.219,184.91a.539.539,0,0,1-.512-.369,5.8,5.8,0,0,0-1.231-1.437c-1.388.141-2.856-.389-4.883-1.2a2.934,2.934,0,0,0-3.161.972.54.54,0,0,1-.837-.68,3.966,3.966,0,0,1,4.4-1.293c1.986.793,3.376,1.3,4.57,1.1a.539.539,0,0,1,.445.127,7.133,7.133,0,0,1,1.721,2.067.54.54,0,0,1-.512.71" transform="translate(-61.407 -83.238)" fill="#fff"/><path d="M150.215,172.031a.519.519,0,0,1-.091-.008.539.539,0,0,1-.441-.622c.365-2.14.316-13.6.316-13.711a.54.54,0,0,1,.537-.542h0a.54.54,0,0,1,.54.537c0,.476.05,11.666-.332,13.9a.539.539,0,0,1-.531.449" transform="translate(-68.86 -72.408)" fill="#fff"/><path d="M133.086,172.015a.539.539,0,0,1-.531-.444c-.384-2.138.128-13.761.15-14.254a.552.552,0,0,1,.564-.515.539.539,0,0,1,.515.563c-.184,4.141-.457,12.4-.166,14.015a.54.54,0,0,1-.532.635" transform="translate(-60.919 -72.248)" fill="#fff"/><path d="M149.454,122.381a.232.232,0,0,1,.274-.231c1.177-1.7,2.333-1.281,2.333-1.281.736-1.427,1.514-1.47,1.514-1.47a2.538,2.538,0,0,1,.546-2.561,3.931,3.931,0,0,1-.693-1.428.939.939,0,0,1,.147-.966c-1.324-.63-1.935-1.995-1.808-2.1a1.505,1.505,0,0,1,.547-.147,5.112,5.112,0,0,1-2.67-2.666,2.758,2.758,0,0,1,2.417.84,4.582,4.582,0,0,1,.336-1.323,3.328,3.328,0,0,1,1.871,2.289,6.523,6.523,0,0,1,.421-.777,2.9,2.9,0,0,1,1.093,2.519,1.44,1.44,0,0,1,.42-.483,2.771,2.771,0,0,1,.547,3.191.513.513,0,0,1,.273-.042,3.429,3.429,0,0,1-.925,3.17s.295.021.567.063c0,0,.043,1.49-2.144,2.583,0,0-.021.65-1.535,1.154a.709.709,0,0,1,.211.315c.021.147-.442.484-1.64.651a3.908,3.908,0,0,0,2.481-.189s-.168,1.05-.883,1.112a3.91,3.91,0,0,1-2.733-.819s-.736-.105-.946-.462h-.123c-.21.356-.945.462-.945.462a3.912,3.912,0,0,1-2.733.819c-.715-.063-.883-1.112-.883-1.112a3.908,3.908,0,0,0,2.481.189c-1.2-.168-1.661-.5-1.64-.651a.708.708,0,0,1,.211-.315c-1.514-.5-1.535-1.154-1.535-1.154-2.186-1.092-2.145-2.583-2.145-2.583.273-.042.568-.063.568-.063a3.428,3.428,0,0,1-.925-3.17.515.515,0,0,1,.273.042,2.769,2.769,0,0,1,.546-3.191,1.446,1.446,0,0,1,.421.483,2.9,2.9,0,0,1,1.093-2.519,6.47,6.47,0,0,1,.421.777,3.326,3.326,0,0,1,1.87-2.289,4.582,4.582,0,0,1,.336,1.323,2.759,2.759,0,0,1,2.418-.84,5.117,5.117,0,0,1-2.67,2.666,1.5,1.5,0,0,1,.546.147c.126.105-.483,1.47-1.808,2.1a.938.938,0,0,1,.147.966,3.931,3.931,0,0,1-.693,1.428,2.538,2.538,0,0,1,.546,2.561s.778.043,1.513,1.47c0,0,1.156-.42,2.334,1.281a.232.232,0,0,1,.274.231Z" transform="translate(-65.203 -50.246)" fill="#fff" fill-rule="evenodd"/><path d="M102.29,122.381a.231.231,0,0,1,.273-.231c1.178-1.7,2.333-1.281,2.333-1.281.736-1.427,1.514-1.47,1.514-1.47a2.539,2.539,0,0,1,.547-2.561,3.924,3.924,0,0,1-.694-1.428.939.939,0,0,1,.147-.966c-1.324-.63-1.935-1.995-1.808-2.1a1.5,1.5,0,0,1,.546-.147,5.116,5.116,0,0,1-2.67-2.666,2.758,2.758,0,0,1,2.417.84,4.6,4.6,0,0,1,.336-1.323,3.329,3.329,0,0,1,1.871,2.289,6.439,6.439,0,0,1,.421-.777,2.9,2.9,0,0,1,1.092,2.519,1.453,1.453,0,0,1,.421-.483,2.769,2.769,0,0,1,.546,3.191.517.517,0,0,1,.274-.042,3.43,3.43,0,0,1-.926,3.17s.3.021.568.063c0,0,.043,1.49-2.145,2.583,0,0-.021.65-1.535,1.154a.7.7,0,0,1,.21.315c.021.147-.441.484-1.639.651a3.906,3.906,0,0,0,2.48-.189s-.169,1.05-.883,1.112a3.911,3.911,0,0,1-2.734-.819s-.736-.105-.946-.462h-.123c-.21.356-.946.462-.946.462a3.911,3.911,0,0,1-2.733.819c-.715-.063-.883-1.112-.883-1.112a3.906,3.906,0,0,0,2.48.189c-1.2-.168-1.66-.5-1.639-.651a.709.709,0,0,1,.21-.315c-1.514-.5-1.535-1.154-1.535-1.154C94.957,120.47,95,118.98,95,118.98c.274-.042.569-.063.569-.063a3.426,3.426,0,0,1-.925-3.17.513.513,0,0,1,.273.042,2.77,2.77,0,0,1,.547-3.191,1.452,1.452,0,0,1,.421.483,2.9,2.9,0,0,1,1.093-2.519,6.528,6.528,0,0,1,.421.777,3.326,3.326,0,0,1,1.87-2.289,4.584,4.584,0,0,1,.336,1.323,2.76,2.76,0,0,1,2.418-.84A5.119,5.119,0,0,1,99.35,112.2a1.5,1.5,0,0,1,.546.147c.126.105-.483,1.47-1.808,2.1a.939.939,0,0,1,.147.966,3.932,3.932,0,0,1-.694,1.428,2.536,2.536,0,0,1,.546,2.561s.778.043,1.513,1.47c0,0,1.156-.42,2.334,1.281a.232.232,0,0,1,.274.231Z" transform="translate(-43.504 -50.246)" fill="#fff" fill-rule="evenodd"/><path d="M114.888,200.089l-.157-.061c-17.77-6.932-22.341-24.739-22.362-24.909l1.072-.134-.536.067.535-.068c.024.164,4.716,17.32,21.518,23.975,1.549-.448,14.219-4.65,20.953-23.716l1.019.359c-7.353,20.818-21.736,24.416-21.88,24.45Z" transform="translate(-42.496 -80.626)" fill="#fff"/><path d="M144.329,103.481a6.577,6.577,0,0,1-.947,1.078h17.373v29.43h1.08V103.481Z" transform="translate(-65.965 -47.68)" fill="#fff"/><path d="M89.312,103.481v30.675h1.08v-29.6h16.785l.54-1.078Z" transform="translate(-41.09 -47.68)" fill="#fff"/><rect width="46.125" height="1.078" transform="translate(49.098 74.651)" fill="#fff"/><path d="M142.427,54.594l.085.142c.087.146.743.2,1.423.136a6.954,6.954,0,0,0-.215-4.309,3.6,3.6,0,0,0-.592-.1,6.543,6.543,0,0,1-1.347-.341l-.62-.192c-.553-.17-.8-.108-.9-.056a.164.164,0,0,0-.086.09l-.019.125a11.857,11.857,0,0,1,.935,4.411,3.238,3.238,0,0,0,1.168.1Z" transform="translate(-64.483 -22.956)" fill="#fff" fill-rule="evenodd"/><path d="M113.9,56.368l.117.042a2.356,2.356,0,0,0,1.068-.113,12.3,12.3,0,0,0-1.878-3.509,3.566,3.566,0,0,0-2.623.879c-.134.205-1.086,1.766.142,2.685a3.047,3.047,0,0,0,3.067.075Z" transform="translate(-50.654 -24.319)" fill="#fff" fill-rule="evenodd"/><path d="M151.257,53.373l-.015-.1a1.642,1.642,0,0,0-1.368-1.676,2.814,2.814,0,0,0-1.457-.172,7.186,7.186,0,0,1,.028,4.578l.009.006a2.674,2.674,0,0,0,2.134.013c.691-.383.807-1.782.669-2.653" transform="translate(-68.282 -23.681)" fill="#fff" fill-rule="evenodd"/><path d="M134.6,53.98l.178-.158.179.156c.869.759,1.482.746,1.8.647a11.807,11.807,0,0,0-1.037-4.463c-.064.008-.129.016-.208.028s-.182.028-.265.038l-.179.022a6.245,6.245,0,0,1-1.864,0,1.413,1.413,0,0,0-.708.026,8.38,8.38,0,0,1,1.5,4.057,1.723,1.723,0,0,0,.6-.353" transform="translate(-60.959 -23.113)" fill="#fff" fill-rule="evenodd"/><path d="M120.053,55.035l.123-.1.146.058a2.308,2.308,0,0,0,1.834.086,11.214,11.214,0,0,0-1.864-4.046,7.133,7.133,0,0,0-1.674.253.611.611,0,0,1-.289.066,4.65,4.65,0,0,0-.584.046.8.8,0,0,0-.531.223,12.527,12.527,0,0,1,1.936,3.72,1.289,1.289,0,0,0,.9-.309" transform="translate(-53.926 -23.515)" fill="#fff" fill-rule="evenodd"/><path d="M127.888,54.157l.153-.1.15.1a2.571,2.571,0,0,0,1.333.061,8.818,8.818,0,0,0-1.71-3.994.835.835,0,0,0-.374-.029,7.625,7.625,0,0,1-1.556.132l-.488.018a3.09,3.09,0,0,0-.869.127,11.565,11.565,0,0,1,1.775,3.989,2.222,2.222,0,0,0,1.587-.31" transform="translate(-57.29 -23.125)" fill="#fff" fill-rule="evenodd"/><path d="M135.159,73.7c-.225-1.214-1.26-.315-2.25-.629s-.63-1.8.135-5.079a37.524,37.524,0,0,1,1.485-5.168c.36-1.034-.855-2.561-1.215-3.146s-.72-1.753-.99-1.843-3.51-.674-5.9-1.078-11.519.5-11.969.944a9.874,9.874,0,0,0-1.125,1.888,25.544,25.544,0,0,1-1.395,2.7c-.9,1.528.675,2.157,1.215,2.741a42.255,42.255,0,0,1,2.7,8.045c-.134.359-1.53.449-1.53.449-.855,1.978-.315,5.932-.315,5.932,2.745-.18,2.385,2.112,1.935,2.607a1.116,1.116,0,0,0-.315.988c1.924,2.126,5.144,4.133,6.762,4.278a4.22,4.22,0,0,1-.1-.413,12.066,12.066,0,0,1,.151-3.976,7.188,7.188,0,0,1-3.9-3.431,22.4,22.4,0,0,1-2.17-5.118c-.138-.6-.185-.83-.185-.83.231-.092.462.6.508,1.106.045.489,2.706,7.361,5.794,7.979.049-.312.1-.628.164-.944.45-2.337-1.53-12.134-1.53-12.134-.045-.629.36.18.585.809s1.035,6.876,1.26,8.359a9.971,9.971,0,0,1-.135,3.73c-.014.064-.025.146-.038.219l.041,0v.369l-.1-.025a35.81,35.81,0,0,0-.221,3.926,3.05,3.05,0,0,1-.017.378,1.446,1.446,0,0,0,.331-.018c1.4-.27,6.075-3.326,6.75-3.685a8.429,8.429,0,0,0,1.305-.9s2.655.314,3.33-.944,1.17-6.875.945-8.089M116.125,62.014c1.035.09,2.79,3.235,6.84,2.561s4.545-1.843,6.21-1.752,1.665.449,1.3.719-6.929,3.775-8.5,3.505a26.217,26.217,0,0,1-6.57-2.966c-.765-.629-1.125-.9-1.125-.9s.81-1.258,1.845-1.168m6.21,7.19a1.646,1.646,0,0,1-.875-.1c-.024.1-.789.175-.97.145-.27-.045-4.319-1.977-5.175-2.472s-1.035-1.078-.72-.9c0,0,4.68,2.876,6.21,3.056a3.934,3.934,0,0,1,.5.083.565.565,0,0,1-.048-.038,20.112,20.112,0,0,0,5.895-1.753c2.97-1.438,5.4-2.158,5.8-2.607s.36.18-.045.4-5.31,2.382-5.894,2.607a44.043,44.043,0,0,1-4.68,1.573m10.424,4.167s-.369-.139-.923.922a44.585,44.585,0,0,1-4.155,5.58,29.537,29.537,0,0,1-4.109,3c-.461.184-.461-.093-.461-.093a8.709,8.709,0,0,0,3.416-2.213,54.52,54.52,0,0,0,3.878-4.427c.462-.461,1.477-2.536,1.939-2.859s.415.092.415.092" transform="translate(-51.375 -26.104)" fill="#fff" fill-rule="evenodd"/><path d="M130.181,210.284c-9.041-5.144-11.288-7-18.137-8.811,0,0-.177,1.707-1.272,1.707a5.355,5.355,0,0,1-2.745-.712c-.384-.329-.22-1.864-.22-1.864a21.257,21.257,0,0,0-8.415-.148,51.632,51.632,0,0,1-4.075,4.489.884.884,0,0,0-.349.558c-.1.418-1.1,3.112-.628,3.937a.1.1,0,0,1-.027.14l-.033.029a3.119,3.119,0,0,0,.292.37c.419.457,4.407,3.639,3.681,4.9a3.694,3.694,0,0,1-1.965,1.62s-.325-.077.191-.305a3.57,3.57,0,0,0,1.45-1.639c.072-.5-2.747-3.468-3.148-3.887a3.313,3.313,0,0,1-.6-.981,16.467,16.467,0,0,1-8.83,3.394v-.011l-2.982.02a16.324,16.324,0,0,1-9.717-3.345,3.312,3.312,0,0,1-.6.981c-.4.42-3.221,3.385-3.148,3.887a3.568,3.568,0,0,0,1.45,1.639c.515.228.191.3.191.3a3.692,3.692,0,0,1-1.965-1.62c-.725-1.258,3.263-4.44,3.682-4.9a3.226,3.226,0,0,0,.292-.37l-.035-.028a.107.107,0,0,1-.027-.141c.468-.824-.732-2.667-.836-3.085s-1.162-1.266-1.162-1.266a48.993,48.993,0,0,1-3.96-4.325,19.634,19.634,0,0,0-7.507-.159s.164,1.536-.22,1.864a5.35,5.35,0,0,1-2.745.713c-1.1,0-1.272-1.707-1.272-1.707-6.85,1.806-9.1,3.667-18.137,8.811s-11.837.547-11.837.547,0,1.04,1.7,2.791,1.205,2.135,2.685,4.379,3.507,1.586,7.617.437a73.592,73.592,0,0,0,11.836-4.925c1.808-.985,7.288-2.955,7.288-2.955a26.082,26.082,0,0,1,2.795-2.08c.767-.383,1.534-.6,1.754-.382s.829.886.829.886a20.089,20.089,0,0,1,6.075-1.216s0,.044-.009.119a9.683,9.683,0,0,1,2.646.129c1.66.324,1.527.876.916,1.563s-2.022,2.02-2.728,2.954c0,0-.133-.077.343-.782s2.461-2.5,2.4-2.858-.611-.629-1.641-.744c-.739-.081-1.49-.143-1.947-.178-.045.6-.188,2.44-.368,4.285-.219,2.244.11,3.065.275,3.12,0,0,5.337,5.631,15.1,5.539l2.049-.063v0c9.767.093,15.106-5.538,15.106-5.538.164-.055.493-.876.274-3.12-.18-1.845-.323-3.687-.368-4.284-.457.035-1.208.1-1.947.178-1.03.114-1.584.381-1.641.743s1.928,2.153,2.4,2.859.343.781.343.781c-.706-.933-2.118-2.267-2.729-2.954s-.743-1.238.916-1.562a9.665,9.665,0,0,1,2.646-.129c-.006-.076-.009-.119-.009-.119a20.061,20.061,0,0,1,6.075,1.216s.61-.668.829-.888.986,0,1.754.383a25.978,25.978,0,0,1,2.794,2.08s5.48,1.97,7.289,2.955a73.673,73.673,0,0,0,11.836,4.926c4.11,1.149,6.137,1.805,7.617-.438s.986-2.627,2.685-4.379,1.7-2.791,1.7-2.791-2.795,4.6-11.836-.547m-64.2-5.179c-.063.332-.807.837-1.128.639q-.227-.14-.463-.266c-.067.013-.155.021-.177-.029-.011-.027-.024-.054-.036-.081a4,4,0,0,0-.918-.331,14.985,14.985,0,0,1-1.513-.408c-.393-.128-.781-.277-1.161-.441.206.465.4.933.6,1.4a3.177,3.177,0,0,1,.351-.22c.057-.032.576-.3.543-.072a4.343,4.343,0,0,1-.513,1.37,1.407,1.407,0,0,1-.606.536c-.076.04-.506.24-.574.071-.031-.08-.069-.158-.1-.238a3.126,3.126,0,0,1-2.653.834,5.555,5.555,0,0,1-2.373-1.182c-.121.04-.241.083-.364.119.15.409.3.819.445,1.229a2.606,2.606,0,0,1,.32-.184c.039-.019.529-.233.479-.013a2.532,2.532,0,0,1-.833,1.4,1.359,1.359,0,0,1-.547.292c-.083.021-.314.082-.36-.041-.076-.2-.148-.407-.221-.611-.013.026-.021.053-.036.078a2.219,2.219,0,0,1-.87.723,2.1,2.1,0,0,1-1.509.277,4,4,0,0,1-1.3-.587c-.033-.021-.064-.045-.1-.066-.261.132-.526.257-.8.371-.18.077-.361.15-.543.22h0c-.086.469-.171.939-.246,1.41.016-.006.034-.01.051-.016.033-.014.069-.027.1-.043.049-.025.1-.051.149-.073s.1-.04.147-.058.116-.03.174-.042l.017-.007a.119.119,0,0,1,.118,0,.1.1,0,0,1-.028.072l-.008.013c-.006.006,0,.016-.009.023l-.015.016.024-.039v0a.53.53,0,0,1-.1.162c-.036.034-.071.067-.1.1l-.022.019c-.053.046-.106.091-.162.134a3.054,3.054,0,0,1-.4.254c-.116.065-.235.123-.356.176s-.236.094-.356.135a1.525,1.525,0,0,1-.315.084c-.066.007-.165-.012-.151-.1.01-.027.021-.055.031-.083l0-.005a.088.088,0,0,1-.008-.035c0-.037.013-.073.017-.111-.028.06-.055.12-.084.178a2.6,2.6,0,0,1-.145.259,1.848,1.848,0,0,1-.449.474,2.11,2.11,0,0,1-.658.354.336.336,0,0,1-.138.021l-.045-.024c-.023-.035.017-.1.035-.125.032-.05.07-.1.1-.146-.2.089-.391.176-.585.263q-.8.36-1.613.693c-.076.031-.273.094-.373.033-.027.058-.056.116-.083.174.077.006-.04.142-.056.159s-.024.021-.035.032-.016.035-.025.052a2.432,2.432,0,0,1-.132.232,1.842,1.842,0,0,1-.443.465,2.122,2.122,0,0,1-.658.354.331.331,0,0,1-.138.021l-.045-.024c-.023-.035.016-.1.034-.124.046-.069.1-.132.145-.2.021-.033.038-.069.057-.1-.418.138-.848.228-1.29.349a3.241,3.241,0,0,0-1.282.579c-.084.075-.891.683-1,.424-.5-1.231-.957-2.482-1.565-3.661a1.729,1.729,0,0,1-.32.359,2.581,2.581,0,0,1-.734.445c-.043.016-.164.06-.217.025-.03-.007-.038-.029-.026-.063s.025-.049.038-.073.048-.063.075-.093a.413.413,0,0,1,.056-.073c.037-.051.072-.1.1-.155.066-.106.124-.216.18-.327-.012.025-.024.05-.037.074.084-.167.164-.335.254-.5.041-.076.085-.149.131-.222.026-.039.052-.079.082-.117.009-.011.021-.019.03-.031.008-.161.79-.66,1.079-.742.02-.012.042-.024.062-.036s.155-.038.111.038l-.036.057a29.122,29.122,0,0,1,1.824,4.079,8.551,8.551,0,0,1,2.842-1.048c.019-.032.035-.067.056-.1a1.484,1.484,0,0,1,.219-.246,2.619,2.619,0,0,1,.422-.311c.03-.019.063-.035.094-.052-.5-.965-.88-1.987-1.288-2.994a1.713,1.713,0,0,1-.3.327,2.589,2.589,0,0,1-.735.445c-.043.016-.164.06-.216.025-.03-.007-.038-.029-.026-.063s.025-.048.037-.073.049-.063.076-.093a.361.361,0,0,1,.056-.073c.037-.051.072-.1.1-.155.066-.106.124-.216.18-.327l-.037.074c.084-.167.163-.335.253-.5.042-.075.085-.15.132-.222.026-.04.052-.079.082-.117s.041-.04.06-.062c-.012-.173.413-.428.508-.49.064-.043.532-.339.656-.268.04,0,.085,0,.056.049,0,.006-.007.011-.01.017s.006.016.01.024c.4-.174.832-.307,1.235-.47l.189-.079c.028-.012.077-.038.123-.058a.222.222,0,0,1,.049-.017l.025-.012c.059-.028.117-.057.174-.087l.036-.019c.035-.021.07-.043.1-.066l.023-.016.036-.026c.015-.011.031-.017.045-.027a2.592,2.592,0,0,1,.326-.188c.018-.009.034-.023.053-.031s.024-.007.035-.012l.032-.016a2.682,2.682,0,0,1,.362-.246c.142-.077.289-.129.436-.194.022-.01.148-.038.11.038-.082.163-.192.311-.279.473l-.018.039a.447.447,0,0,1-.024.095.7.7,0,0,1-.1.157c-.023.051-.046.1-.071.152a2.759,2.759,0,0,1-.145.259,1.862,1.862,0,0,1-.449.474,2.122,2.122,0,0,1-.658.355.328.328,0,0,1-.138.02l-.045-.024c-.023-.035.016-.1.034-.124.038-.057.08-.109.118-.166a7.686,7.686,0,0,1-.771.342c-.182.069-.367.129-.551.191q.213.527.422,1.056c.119-.056.239-.111.361-.163l.246-.108.125-.056h0l.363-.167-.081.037.074-.034.111-.051c.162-.075.322-.151.483-.227,0,0,.005-.01.009-.015a1.514,1.514,0,0,1,.211-.237,2.594,2.594,0,0,1,.5-.36c.142-.078.289-.129.436-.194.022-.01.148-.038.11.038-.083.164-.193.312-.279.475-.054.111-.106.223-.159.334,0,.01-.008.019-.014.029-.019.039-.036.078-.056.116a2.144,2.144,0,0,1-.132.232,1.856,1.856,0,0,1-.443.465,2.12,2.12,0,0,1-.658.354.331.331,0,0,1-.138.021l-.045-.024c-.023-.034.016-.1.034-.124s.037-.053.057-.079c-.244.114-.486.231-.733.337l-.117.049a15.162,15.162,0,0,0,.7,1.491c.332-.14.666-.28.992-.429s.635-.317.959-.464c.025-.043.046-.087.074-.127a1.52,1.52,0,0,1,.211-.237,2.585,2.585,0,0,1,.5-.36,2.434,2.434,0,0,1,.253-.117c.037-.182.076-.363.111-.546.089-.466.165-.935.245-1.4a13.5,13.5,0,0,1,.62-2.708c.036-.092.163-.17.239-.229a4.076,4.076,0,0,1,.453-.306c.036-.022.518-.3.485-.162-.082.335-.156.671-.229,1.006a7.506,7.506,0,0,0,1.557,1.431c.05-.062.045-.034,0,0h0c.021-.017.046-.032.064-.046.038-.029.076-.06.113-.09l.16-.156a.057.057,0,0,1,.009-.008v0c.022-.03.049-.058.072-.088a1.867,1.867,0,0,1,1.255-.826.061.061,0,0,1,.055.083,2.674,2.674,0,0,1-.93,1.157c-.112.094-.233.175-.352.26.069.041.135.088.2.126a2.456,2.456,0,0,0,1.238.413c.013-.122.014-.244.026-.366.019-.194.457-.5.8-.648-.3-.827-.607-1.647-.973-2.446a2.1,2.1,0,0,1-.5.409,1.277,1.277,0,0,1-.478.213c-.219.022-.092-.162-.02-.27a3.376,3.376,0,0,1,.492-.564,4.9,4.9,0,0,1,.721-.552c.058-.041.109-.074.138-.094a2.673,2.673,0,0,1,.356-.2c.026-.014.051-.032.079-.046a6.822,6.822,0,0,1,2.274-.7,2.1,2.1,0,0,1,1.529.237c.436.359.02,1-.246,1.317a3.968,3.968,0,0,1-.659.634,5.237,5.237,0,0,0,1.826.921,2.071,2.071,0,0,0,.94.023l.025,0,.036-.013.086-.032a1.15,1.15,0,0,1,.139-.071l.06-.036c.056-.034.113-.068.17-.1.072-.042.146-.076.22-.111-.416-.986-.854-1.962-1.279-2.944a.067.067,0,0,1,0-.037,2.007,2.007,0,0,1-.257.21l-.161.1c-.154.092-.2.11-.131.057a1.87,1.87,0,0,1-.387.182s-.166.038-.113-.042a.088.088,0,0,0,.014-.043.437.437,0,0,1,.107-.169l.026-.03c.022-.025.044-.05.067-.075.084-.09.172-.176.261-.262.16-.152.33-.294.5-.432s.367-.278.558-.4c.065-.042.133-.079.2-.119l.007,0c.042-.025.083-.052.125-.075.076-.041.153-.081.231-.115a.8.8,0,0,1,.348-.1.124.124,0,0,1,.127.019.123.123,0,0,1-.034.124c-.033.043-.073.076-.11.115a10.03,10.03,0,0,0,2.6,1.183c.249.08.5.147.752.209-.212-.491-.414-.986-.6-1.488-.029.021-.056.044-.086.064a2.22,2.22,0,0,1-.314.172,1,1,0,0,1-.251.08.135.135,0,0,1-.135-.03.137.137,0,0,1,.027-.135,4.872,4.872,0,0,1,.645-.753c.086-.09.173-.178.261-.264.044-.044.089-.087.135-.13s.118-.106.181-.154a2.309,2.309,0,0,1,.243-.163,1.446,1.446,0,0,1,.235-.121l.293-.12a.493.493,0,0,1,.19-.043q.065.007.044.068a.628.628,0,0,1-.062.1l.037-.074a1.749,1.749,0,0,1-.355.455c.352,1.018.8,2,1.236,2.981.085-.055.168-.1.232-.135.083-.043.589-.285.571-.029a7,7,0,0,1-.1.868m21.744,13.1c-.083.122-.168.244-.257.361a7.151,7.151,0,0,1-.618.691c-.16.162-.755.627-1,.418-.357-.3-.678-.646-1.034-.95s-.716-.6-1.069-.913q-.359-.312-.705-.638c0,.055.009.109.014.164.026.334.055.672.053,1.008,0,.046-.008.093-.01.14a1.681,1.681,0,0,1,.573-.28c.041-.01.155-.052.184,0s-.049.155-.072.194a3.485,3.485,0,0,1-.287.408c-.2.253-.426.489-.65.722a1.775,1.775,0,0,1-.67.414c-.085.029-.343.114-.34-.058.006-.3.06-.6.063-.9,0-.335-.027-.673-.052-1.007-.045-.589-.134-1.19-.148-1.784a3.39,3.39,0,0,1-.748.363l-.008.008.068-.023-.07.025a3.986,3.986,0,0,1-1.75,1.02,3.7,3.7,0,0,0,.583.959,1.077,1.077,0,0,0,.5.361l.007,0,.041-.029c.118-.078.241-.148.363-.218a.9.9,0,0,1,.442-.162c.1.01.125.061.057.154a2.881,2.881,0,0,1-1.236,1,1.126,1.126,0,0,1-.861.063,2.446,2.446,0,0,1-1.045-1.272,6.042,6.042,0,0,1-.254-.692c-.072,0-.144,0-.217,0a4.131,4.131,0,0,1-2.627-.913c-.094.091-.191.179-.281.275-.051.055-.1.112-.149.169a.389.389,0,0,0,.037.036.758.758,0,0,0,.269.09c.1,0,.207,0,.31,0h-.012a.146.146,0,0,1,.078,0h0a.144.144,0,0,1,.057.03.094.094,0,0,1-.011.1.98.98,0,0,1-.323.345,1.68,1.68,0,0,1-.969.407,1.151,1.151,0,0,1-.368-.059.837.837,0,0,1-.146-.073l-.008,0c-.049.027-.259.161-.3.129s-.035-.024,0-.1a1.849,1.849,0,0,1,.12-.206.466.466,0,0,1-.067-.146c-.018-.073.076-.148.122-.194a2.421,2.421,0,0,1,.4-.306c.074-.049.153-.1.234-.14.389-.4.8-.778,1.219-1.152.5-.447,1.016-.871,1.525-1.306l.038-.032.038-.035c.054-.05.108-.1.164-.15.138-.125.28-.246.423-.366a5.718,5.718,0,0,1,1.191-.858c.092-.045.5-.186.348.07a3.393,3.393,0,0,1-.737.805.07.07,0,0,1,.058.038,26.935,26.935,0,0,1,.766,2.739,4.246,4.246,0,0,0,.517-.018,1.9,1.9,0,0,0,.573-.133,1.049,1.049,0,0,0,.175-.1,5.213,5.213,0,0,1,.515-.306c.033-.017.079-.046.127-.076.012-.013.024-.027.037-.04a3.819,3.819,0,0,1,.423-.358l.246-.178c.086-.062.17-.125.254-.188.1-.077.209-.149.315-.222a3.628,3.628,0,0,1,.449-.254l.035-.017.179-.075-.1.058a1.784,1.784,0,0,1,.319-.131l.1-.017c.114.011.024.124,0,.167s-.059.063-.086.1a16.493,16.493,0,0,0,1.892,1.882c.2.17.395.338.593.506,0-.007,0-.014,0-.022,0-.48.019-.966.056-1.448l-.362.237a.846.846,0,0,1-.279.1.081.081,0,0,1-.082-.012c0-.015,0-.03,0-.045a4.552,4.552,0,0,1,.413-.514c.083-.1.167-.194.255-.287a4.9,4.9,0,0,1,.962-.8,2.03,2.03,0,0,1,.452-.224c.065-.021.191-.06.25,0s-.076.2-.1.23a1.6,1.6,0,0,1-.289.25c0,.6-.07,1.2-.069,1.8a7.941,7.941,0,0,0,.052.927c.027.223.07.441.108.662a3.653,3.653,0,0,1,.437-.322c.107-.066.41-.3.545-.242.116.047-.1.293-.154.366m6-1.778a4.927,4.927,0,0,1-1.58,1.892,4.458,4.458,0,0,1-1.572.764,4.515,4.515,0,0,1-1.123.114,3.712,3.712,0,0,1-.578.239c-.116.037-.159-.029-.077-.12.113-.127.268-.3.33-.378a.65.65,0,0,0,.1-.185,1.789,1.789,0,0,0,.08-.5,3.9,3.9,0,0,0-.128-1.062c-.141-.605-.344-1.191-.54-1.781-.023.022-.045.047-.07.067a4.155,4.155,0,0,1-.565.4c-.094.056-.3.209-.416.2-.089,0-.079,0-.023-.089a1.336,1.336,0,0,1,.156-.189,3.514,3.514,0,0,0,.748-.917,1.366,1.366,0,0,1,.58-.534c.024-.014.593-.329.614-.181l-.033-.013.049.029c.035.112.072.224.109.335.147-.1.3-.2.449-.284a3.544,3.544,0,0,1,1.4-.47,2.339,2.339,0,0,1,2.06.747,1.871,1.871,0,0,1,.026,1.916m14.246-9.811c-.116.164-.2.349-.316.51a2.26,2.26,0,0,1-.57.5c-.13.086-.5.32-.668.226s.043-.316.127-.4a1.507,1.507,0,0,0,.233-.362,8.441,8.441,0,0,0-2.72-.675c-.149-.022-.192-.073-.143-.222a13.741,13.741,0,0,0,1.042-3.943,7.671,7.671,0,0,1-1.68.515c-.116.019.187-.254.211-.273a4.133,4.133,0,0,1,.728-.454,10.246,10.246,0,0,0,1.231-.506c.072-.047.716-.427.726-.136a12.316,12.316,0,0,1-1.024,4.158,7.678,7.678,0,0,1,2.834.741c.137.077.059.22-.01.319m5.384-2.047c-.291.761-.516,1.544-.818,2.3a5,5,0,0,1-.347.757,1.628,1.628,0,0,1-.472.465c.205.125.409.253.625.363a2.065,2.065,0,0,0,.576.208,1.139,1.139,0,0,0,.312.012c.061,0,.12-.016.18-.026l.04-.007h0c.144-.027.063-.011,0,0,.276-.05.066.25-.007.328a1.765,1.765,0,0,1-.789.492,1.909,1.909,0,0,1-1.365-.152c-.409-.2-.774-.483-1.189-.675-.2-.094.116-.374.2-.447a1.443,1.443,0,0,1,.793-.4c.044,0,.074,0,.107-.008.134-.321.278-.636.392-.968a12.025,12.025,0,0,1,.906-2.324.741.741,0,0,1,.083-.1c-.441-.143-.874-.332-1.3-.5l-.5.225c-.129.058-.258.117-.384.179l-.088.045-.054.032-.088.064c.08-.058-.032.029-.043.041a1.211,1.211,0,0,0-.185.241,1.293,1.293,0,0,0-.158.77c.015.173-.421.4-.536.474-.042.028-.646.369-.652.3-.123-1.4,1.49-2.2,2.547-2.729.123-.061.246-.12.369-.179l.162-.078.085-.042.015-.007a.8.8,0,0,1,.622-.153c.207.062.41.161.611.241a5.257,5.257,0,0,0,2.319.453c.133-.007-.281.366-.329.4a2.009,2.009,0,0,1-.78.4,2.789,2.789,0,0,1-.855.005m9.435,4.725a3.939,3.939,0,0,1-1.542,1.6c-.677.416-1.442.686-2.09,1.143-.144.1-.724.391-.785.046-.159-.9-.559-1.722-.713-2.628a12.521,12.521,0,0,1-.141-2.283q-.221.115-.449.223a3.641,3.641,0,0,0-.763.45,1.161,1.161,0,0,0-.3,1.73c.158.2-.992,1.017-1.188.771-.641-.8-.14-1.687.487-2.322a6.03,6.03,0,0,1,1.2-.932,10.535,10.535,0,0,0,1.333-.72c.084-.069.917-.582.905-.206a13.242,13.242,0,0,0,.145,2.679c.134.778.441,1.5.628,2.259.346-.186.7-.355,1.051-.536a2.22,2.22,0,0,0,1-.819,1.51,1.51,0,0,0,.227-.947c-.092-.408-.567-.305-.881-.267-.419.051.283-.537.352-.581.43-.274,1.36-.66,1.689-.013a1.642,1.642,0,0,1-.167,1.358m7.191,2.409a3.889,3.889,0,0,1-1.613,1.107.72.72,0,0,1-.1.023c.212.119.422.238.632.359a2.421,2.421,0,0,1,.485-.209c.062-.018.185-.068.244-.005s-.089.2-.1.221a2.04,2.04,0,0,1-.239.243c-.01.118-.393.42-.434.449a2.578,2.578,0,0,1-.391.228c-.022.01-.072.032-.126.052l0,0a2.4,2.4,0,0,1-.275.189,1.581,1.581,0,0,1-.294.135l.042-.01c-.1.044-.28.107-.381.036a.073.073,0,0,1-.042-.088.4.4,0,0,1,.095-.189,2.058,2.058,0,0,1,.261-.243c-.434-.237-.852-.51-1.293-.733a5.192,5.192,0,0,0-1.466-.5c-.111.264-.243.509-.378.759a7.183,7.183,0,0,0,1.7.824c.628.238,1.242.5,1.847.789.075-.047.147-.1.224-.141.113-.067.226-.137.342-.2a2.317,2.317,0,0,1,.642-.224.108.108,0,0,1,.109.013.032.032,0,0,1,.028.043c.02.067-.065.15-.1.2a2.3,2.3,0,0,1-.517.449c-.07.045-.143.086-.215.127-.131.08-.263.16-.392.243s-.264.175-.394.266c-.058.041-.3.215-.066.046l-.195.141a2.221,2.221,0,0,1-.471.277.564.564,0,0,1-.352.055c-.093-.03-.072-.129-.042-.2a.911.911,0,0,1,.238-.278c-.6-.286-1.208-.54-1.83-.778a7.124,7.124,0,0,1-1.8-.923.165.165,0,0,1,.011-.161,7.453,7.453,0,0,0,.487-.963,4.2,4.2,0,0,1,.463-.868,8.437,8.437,0,0,0,.945-1.539c-.548.025-1.1.028-1.644.088-.29.033,0-.251.09-.327a1.862,1.862,0,0,1,.845-.478c.6-.079,1.208-.076,1.812-.128.051,0,.172,0,.145.093a3.507,3.507,0,0,1-.233.58l.008,0,.055-.034a2.215,2.215,0,0,1,.433-.28c.1-.05.3-.16.418-.111.965.4,1.909.84,2.907,1.157.2.064-.06.348-.12.412" transform="translate(-11.42 -92.2)" fill="#fff" fill-rule="evenodd"/><path d="M185.307,214.206l.031-.013a.222.222,0,0,0-.031.013" transform="translate(-85.254 -98.692)" fill="#fff" fill-rule="evenodd"/></g></svg>